<mxfile host="app.diagrams.net" modified="2024-04-04T07:00:39.996Z" agent="Mozilla/5.0 (Macintosh; Intel Mac OS X 10_15_7) AppleWebKit/537.36 (KHTML, like Gecko) Chrome/123.0.0.0 Safari/537.36" etag="cGLb0yDZMwzK3te1Bq04" version="24.0.8" type="github">
  <diagram name="Page-1" id="55a83fd1-7818-8e21-69c5-c3457e3827bb">
    <mxGraphModel dx="2385" dy="1515" grid="1" gridSize="10" guides="1" tooltips="1" connect="1" arrows="1" fold="1" page="1" pageScale="1" pageWidth="1100" pageHeight="850" background="none" math="0" shadow="0">
      <root>
        <mxCell id="0" />
        <mxCell id="1" parent="0" />
        <mxCell id="69ecfefc5c41e42c-18" style="edgeStyle=none;rounded=0;html=1;labelBackgroundColor=none;endArrow=none;strokeWidth=2;fontFamily=Verdana;fontSize=22" parent="1" edge="1">
          <mxGeometry relative="1" as="geometry">
            <mxPoint x="510" y="462" as="sourcePoint" />
            <mxPoint x="510" y="367" as="targetPoint" />
          </mxGeometry>
        </mxCell>
        <mxCell id="69ecfefc5c41e42c-19" style="edgeStyle=none;rounded=0;html=1;labelBackgroundColor=none;endArrow=none;strokeWidth=2;fontFamily=Verdana;fontSize=22" parent="1" edge="1">
          <mxGeometry relative="1" as="geometry">
            <mxPoint x="510" y="287" as="sourcePoint" />
            <mxPoint x="510" y="217" as="targetPoint" />
          </mxGeometry>
        </mxCell>
        <mxCell id="69ecfefc5c41e42c-11" value="" style="html=1;fillColor=#CCCCCC;strokeColor=#6881B3;gradientColor=none;gradientDirection=north;strokeWidth=2;shape=mxgraph.networks.comm_link_edge;html=1;labelBackgroundColor=none;endArrow=none;fontFamily=Verdana;fontSize=22;fontColor=#000000;" parent="1" edge="1">
          <mxGeometry width="100" height="100" relative="1" as="geometry">
            <mxPoint x="230" y="480.125" as="sourcePoint" />
            <mxPoint x="470" y="498.875" as="targetPoint" />
          </mxGeometry>
        </mxCell>
        <mxCell id="69ecfefc5c41e42c-12" value="" style="html=1;fillColor=#CCCCCC;strokeColor=#6881B3;gradientColor=none;gradientDirection=north;strokeWidth=2;shape=mxgraph.networks.comm_link_edge;html=1;labelBackgroundColor=none;endArrow=none;fontFamily=Verdana;fontSize=22;fontColor=#000000;fontStyle=1" parent="1" edge="1">
          <mxGeometry width="100" height="100" relative="1" as="geometry">
            <mxPoint x="270" y="643.4285714285716" as="sourcePoint" />
            <mxPoint x="470" y="525.5714285714287" as="targetPoint" />
          </mxGeometry>
        </mxCell>
        <mxCell id="69ecfefc5c41e42c-13" value="" style="html=1;fillColor=#CCCCCC;strokeColor=#6881B3;gradientColor=none;gradientDirection=north;strokeWidth=2;shape=mxgraph.networks.comm_link_edge;html=1;labelBackgroundColor=none;endArrow=none;fontFamily=Verdana;fontSize=22;fontColor=#000000;" parent="1" edge="1">
          <mxGeometry width="100" height="100" relative="1" as="geometry">
            <mxPoint x="384.48979591836724" y="707" as="sourcePoint" />
            <mxPoint x="485.51020408163276" y="542" as="targetPoint" />
          </mxGeometry>
        </mxCell>
        <mxCell id="69ecfefc5c41e42c-14" value="" style="html=1;fillColor=#CCCCCC;strokeColor=#6881B3;gradientColor=none;gradientDirection=north;strokeWidth=2;shape=mxgraph.networks.comm_link_edge;html=1;labelBackgroundColor=none;endArrow=none;fontFamily=Verdana;fontSize=22;fontColor=#000000;" parent="1" edge="1">
          <mxGeometry width="100" height="100" relative="1" as="geometry">
            <mxPoint x="535.1020408163265" y="707" as="sourcePoint" />
            <mxPoint x="514.8979591836735" y="542" as="targetPoint" />
          </mxGeometry>
        </mxCell>
        <mxCell id="69ecfefc5c41e42c-15" value="" style="html=1;fillColor=#CCCCCC;strokeColor=#6881B3;gradientColor=none;gradientDirection=north;strokeWidth=2;shape=mxgraph.networks.comm_link_edge;html=1;labelBackgroundColor=none;endArrow=none;fontFamily=Verdana;fontSize=22;fontColor=#000000;" parent="1" edge="1">
          <mxGeometry width="100" height="100" relative="1" as="geometry">
            <mxPoint x="730" y="675.4615384615383" as="sourcePoint" />
            <mxPoint x="550" y="533.5384615384617" as="targetPoint" />
          </mxGeometry>
        </mxCell>
        <mxCell id="69ecfefc5c41e42c-16" value="" style="html=1;fillColor=#CCCCCC;strokeColor=#6881B3;gradientColor=none;gradientDirection=north;strokeWidth=2;shape=mxgraph.networks.comm_link_edge;html=1;labelBackgroundColor=none;endArrow=none;fontFamily=Verdana;fontSize=22;fontColor=#000000;" parent="1" edge="1">
          <mxGeometry width="100" height="100" relative="1" as="geometry">
            <mxPoint x="800" y="576.6969696969697" as="sourcePoint" />
            <mxPoint x="550" y="512.3030303030303" as="targetPoint" />
          </mxGeometry>
        </mxCell>
        <mxCell id="69ecfefc5c41e42c-17" value="" style="html=1;fillColor=#CCCCCC;strokeColor=#6881B3;gradientColor=none;gradientDirection=north;strokeWidth=2;shape=mxgraph.networks.comm_link_edge;html=1;labelBackgroundColor=none;endArrow=none;fontFamily=Verdana;fontSize=22;fontColor=#000000;" parent="1" edge="1">
          <mxGeometry width="100" height="100" relative="1" as="geometry">
            <mxPoint x="810" y="444.6470588235295" as="sourcePoint" />
            <mxPoint x="550" y="494.3529411764705" as="targetPoint" />
          </mxGeometry>
        </mxCell>
        <mxCell id="XwNVx1Ax-Z1lkmflQ19T-2" value="" style="shape=image;verticalLabelPosition=bottom;labelBackgroundColor=default;verticalAlign=top;aspect=fixed;imageAspect=0;image=data:image/png,iVBORw0KGgoAAAANSUhEUgAAAWgAAAFoBAMAAACIy3zmAAAAFVBMVEUiVp/u7u7///8LRZYXTpt2lcG5yN1B9Ek9AAASr0lEQVR42uydTXPbNhCGKQPWOUJinw1OpDMzJnVGSsZnR0p8TqQk//8nlJJI4oPYXQCUppMOeWgb16Eev1wCi3cXcJZfLrm6XH/FH7MZeoaeoWfoGXqGnqFn6Bn6/wjd/Vt0X/8r/jhDz9Az9Aw9Q8/QM/QMPUP/L6HnRcAMPUPP0DP0DD1Dz9Az9Aw9u6bzymWGnqFn6Bl6hp6hZ+gZeoaeXdMZ+obQzvVXQK8e/7y9fX97e/tz+coVOE7/FreBbm8rf39/5c/tVZ7/kd1//yP6tzsZWsjfGSuz7+IG0Ln889q0qCpT2elSqmnq51Ld/xT5JGj5WpftzZ7V4drQrRyvz2WTuZdqwe/fhEyHlq/l5Vas+CmvCS3kYytH5r94Xd7/zGUidP5juC8rOq2vAi02rcoqg6+6fBOJ0Ota34ZV4mrQ+SMvM/ziz/ciCTrfm2LUC3kt6Ie6ycirLg4J0OLBlqM4XAn6d62ygItdqCOh9/a9+VJeBfohjLmnjoNeu3H3vJNXgA5mbmU6UcdlBL/cm/NKTnZNxQMLZj594kHGpchs/G7spi4CxCaGuf3ELyIKelN4fvCp0PJbkUVd9TKPgX7y3L6VehK0+OEdnzHxm10EtPilfDE2DXrD/MMEpnUVA733Pq3dJOi9V1P1DouZehERHsz/OssJ0Gtg8s5RqbuZMQRa+mdadkiHlgCbylGp+Uu40v77sKVMhgbRwB+nn9RCoTfAJyiRCg2SqZyQupoKzS7JXgI0DNb+T1RqtguEfoQ+okqEhkNA5SFST1E6aw5p0E8wVk5J3RwmQvNzfMRD7zNMaXoACRrywJtUSdBrBConpVYibMjj4BS1S3BNxV7hSuNSt69/UD4NPk6+SFgEbHhGQONjdTUVuoqHFpiOF2hc6voQBH1EbxALvcdkzGmp2TII+p3C4iMSeoP5HJ3S2KDYpk1B0MgtqmjodyoAGh1A2CEEelNg8REHnaPRMUBjUc0XQRZCg+UCcdAb3FHKA6TmVZCFAKvDt5HQaLRqpVGp6xCXLP+lkLciDvqYhUGjUt8FOUwF8lZEQUseCo1JXYVAI8MUu4uCXhNmRx4ktQozILFZNQb6SYUqjUl9XgqQ0EhQd4uuQOh9FgyNSH0JasqPXCPxsYuAJkLahn5X4EFNVwKQoV6Gu6ZUSGdWvZbhj5f0I5+KWLPKBy3eqQilEanZLgQaea4qAvqYRSiNSb0IauE4Kip/CYEmQtpRGpF6K0Og4Whkd8HQmyZKaXgAORuJDmXeFSeCvIpsGwxNvoeO0rDU6uBAn0v36v6rzQHHRxUMTb2HI6VBqU9vohV4m9e6UU1dLi0OWKVGBELT76GrNCg1X9jQ8lvZlXd7aoHPC5dJNQSaZbFKg1K3b6JxZ6N0X341zVwwPrpMkYaWTbTSoNSVtKp7pVlxND4Xnl+2gdDke+hRGpJamXeWZnXvUk7u3fsSfxNp6KciXmlIan4wSpI/CtAX3eNvIgktfqgEpQGp652+s1Mpu5QoBGF/8F0YNDl4+JQGpG6Hj6Ek6X5HYaRTYEhe5kQ6PPZZitKA1C9DqVy692Vfjc8FB73PYa4pT1IakLoa7jxaDJoWI/x4KxmyCNgUadBABjFgjcOWGRYj/PYHQa8Tof1SNwP03huv4HMYvkmEQNMjnj+m/VGtvQuGW4xY+kJDe0afQkFKHyip2a67sy/fbQyL8QgOHyHQR8+4xSDoJSU17w0XX9S1mcXwueADXsgA6HHsFe4Qq6EZJfWwoH4o0LElB4N6mwTNFqORQUO/UFJv5QpeLDeGW8eQMY+CHue2hXA1NJSuKal7a+uDItw6KKhVQEyPypFsMRqEDWhOSd1DvweffT9qqQzs/aCgR3PLpeXE0tCAziipVRce7wELmpwfTmMeBe3+3a5KZUttQFNS1wJTmmu3Dlxz3dHQ7lNqDmMNTaWzEpe66+wR3pi23Lo9vM6koD8qX2uPLbUFzbeo1L3zCWTMlYZ+r4DeAElCfwAKr6aGFvTwLPxSn2e0E3QBrEwG6Cd4nUm4pk6OaESsKfXwRZ6RUt+haX7nEeRI70dFLgKcZKze+TRUFjQudV9OBKC50cTHwdJvHPS9P2G2oe1p0Z09X/DSrDa+oOoLE+Ryy/5xv5g4w2raURofQLZ4wUxp6F+g3xsHbSVEejntQDsZCPe6+QwtkSIDDNtR0BvllnpNqZVf6awU5s/mL0HsUQsacWvbBJaCLqAhz6yYo0q7vkn3ZWAYNowvKOxJaPentWfprubnKm0NH5saaA5RpPHlD3v+ORbafsl6qbHRYzS7CHz4qAfjCxo+ttHQPqmxcXrUJj4UezhmQYNt6+dnQUCP3+DCI7UFjQs9QEM68juqFEhCjyOPWYvXs/1tK40LPUzUQJ7XzT5Y0bWgoN/7qj0jqU1oQmidXayxORHtPBXx0GzhSm0pbQnt8cYGaKjSp7TF2KCZIAh99Ja4DazHxlaaErovm+RwbnEYCnYcXCVirqnXvRxJbebTlNAtdJ8xf1CU8bVH01doEQCoYUJvShOaFPq8XEKXrlwbX8crQrtSG9Ck0OflEm4ivwx2jH/M42lKW1I/lgpwmLxLqq6MtYITPe0hrQtsoQBCM/wBXSKv8Ht5koFCXqABE6mgoD8nQffdjP2t/a4pUCvaDtBQDUv00EAAfSKggQShtqT+NvyXCGhWqQZoaHGrja8Ga6AALQSehUgtwitF7ZJtgN4UlPHFU6BBb8qWOqJQZCoNCMnviG77Kk1pR2rfBVr5BvQebHVCe1wJ6A2yhSNRaBP6CJr9k6DBtglKalBobkADk4eG9s/0KhWakhrubCl0FyPwk2m37ikJGulA2GLMD0j1UR8kAYx5aoAGvoGARj7btuycC+kCUFpp4PZqhUP3uTHgmmLQjo+U25MkWd9Fsny90QuCRhcBaDW/hKVGNnr1OiETLj8gG/azS3sfAo0qxpdJQpvQ3yA/b4UNBM0hXWnbTQgV2oLeExajf0bmE5QGpV6jZ8OY0EfKF+X+JzEB+ly8jRX6CtBsErS97goT2uoX9c94NQW9mwLtlxoXOuOC6oFnd8gZJdOhexMjQujeNsWqiRp6fwPorIgWuvNyMbeO3xia3cUKbSn9UBC2+U2gsypWaAt6Da1cbwvtZqik0AHhYUAfbwLtLgZIoeOUvg10d3hHuNAhL2IstJ1PB0DbCYike/G7+QwT5ZPMsUVib3ABiwAami1Dd+Y4ORrmew3Q8jbQbqZHS/3fK82WocaSm1j+h0qPU2pSajo8ss8SXWtOhGbLcA8vQunF6pbh4Vu7UFI3xlmUfl/DgL6B0mwZY5fay1Ksqn9TaP8ikZBaGUr7WwrZ1xvGNAPWiLjUAdC7GyoNrcYlC4U+UtAcLI8mQjPQ98ClNqD3SdD1IdnLg20PXGrDy8vBOnKO9ZSxdGhYaEJqErqZCK1ShMalNpSWkAG58jeraa8PdU2bJKHpwwXQJjalTwxVCV6eVElCo1LT0FU+yTVFtugu8ZoLLHVF7pPW0En+NAyNC41Wt8hu0i0FTXTW8EShEanJvt12idhD+x+FkmnQlNBYxVZDc9BrWyFbeFKhaaHhvcHGeQYl5PTm6F7KioBmIUJvvLvkIKm31Obu09yB9shQ0PsQoV+HfbP33qZwW+kXanN3TUF/SYK2hV5Hddb0fTHw4KGGvjwg6Lcp0I7QZjvQCym13qoANUgZ54k214N2hDYar3hNd4vdDccKcDjo0dTnk4zvgHSFNlrcuNN/X2DQQAp5jh9sbuH/JLRtukJbvaak1BoaWNWevwHbiN33UEY1yC5H3q4BTUo9NMhCPd3nXkFsQmQ7Yof+R0ULbe/dort64d27urQ5pW1zRTV9n4W2oKkmyH7LIbz1lzrTbHTaqAs9fhXGQmO75Dyd6gdik7Vx2gHPsNVWOLRHaAea41L3Wz+hg2kuDbQXCGBhEw1tC/1UZiNoZ1cJ81t5K3hLEeWpKmoTpTuWMt8efAcal7rP4KHze5j+BS5QAMlI6MK3Ac6BdnaVOFJXK9wHuqylkPbp8VnFLrQz1dpCDwOaA21/lzNW93kluA1KEqZZm+RRe2w5LfRIaTuqpTcZhs5K6XrCsWT+hYS2X5eFV+gR9DMM3bdPg3svdtrKKYHcZBUFzXfEzk/mqeLa4dF31wuGzIdoq2GbelDQR7B8v/HssWXjernzIvabL6DWW8M0A6Jee6qB0GYOpxV0hzxE6GHfOGRt6uZ76Nhew1MN26Fv5HCGgg40JvSQL4FbsMnu6gBo5xnpxMLQwZnGMaGH1APc7D6Eh4QDiNih7958aMWzdqFaW/tsoWsg2wEC1jgEFNlFR23Bdv9q3x9mBpy1S84WehSXXYMbBL3V0MgmXArafWG6xbRtXJvQttDjBANeEhlrMeQgNs9vpBhBjyLrIrWVV5pKE0IPg+Z7PL+HZx/t9MHQK+Zb7DirDnNhiws9DD9+6OFOcGe/dvpg6NEPfJbS7lQyLQRb6PFiq3+RP2KW2QkLPLPmEAA9Cq1WS7dTyTBriIjmC+xFZDv9hD8A7+GpBYoMj1FS24rptIQZ43Q12uoMYHmhCwE/4bHTh0B71uO/SyASc2vPn2+5XR+QPrQ2A9SfyzPS6YOhx3fnjfLPCI7V61u5NgLpgWc7eH7wOH0IdMDJhJnXVPf6GkoiFcp2pdV/LnhQt2GaIdAr+neS+k8m9FoElYRrDNw4FBcMad9vw7reaZv+XkgdteMJrzbPTAbLaocQaLFPU9rbdNpmngI0zE4Hmwpq04mxfx+D/qVSlPYLbbxqo6A+W0sCnP/NNIA+1zTprF6gu5cZpzy633Gel/5t72yaE4dhMEwnbs9NZundPnBmxqFnzyR752PhTOmU//8TNgFCnQ/JkpPudDvqhWpokwdhx5Zt6Q2kft8im1AQQDnZ68iJAc6vD5cP+FAHKoReI5swtM4joHfgVr1XqNG1g0fvvuAe9TWyCUMT6t6SMzBeW2Ve8/6Ut1nJgZp0eSJC82uqQ46uRwbvyv5f3fJ8NJ5EfdsWJ0AHq9c7qqPrkcG7sifkq25hnA4cUvtNhWbrBICJAXUs35Z5bt7J/fOB8FNWPVChw7MPcqpL58rmaC94qmjpn8EHXLyVvgC0YWpfwBkYr90rm2ORl6rInzL/voi4wYkMveNBg46+zNA6qjPzqjnPDpm/eouNwZoMzdNzgT9jsu1DG/1yTk2LAxPsoEOzlHOQFn1Jn+zLRZrOIAff7rPeTRg6pMngiCnjJI0irHV4K31BaJYa1Bx09PV4ShA6JHJEhX53dGj4A5J0t9DjzyuGGlTKUDhDJrKogO6nCXvIW+kjSMIGBH8c7TgvKlV8Nxdl4KuiQodCLpKjWzoiMDRyBZexoH85mqcxR9+6fggaE8AzHOhQoyadUMc1wxsTebzeK10RoQMaxhRH33c9cWhM1HHLah5IKNHyNKqeuaFoM2MScC5jQuPFLyhJF90z8cCNMKFSzYTG2wfB0ap7bBG4kcI6Mhcaax+O4OjeubRhc4GOTVxoQhUaNLnFZSRofAznQhMUSDFHq1eaSDrcD5OHCGgsEgg7utiSoJFpaXlK+dCIwKwLp8atDA16h85c2NBYwYCgo+vBjNQ8EDl6BBoOKOA+4oZ27jtnn5AJtG/CVeNOhq03jnrBgQkA/tIzBVovY0I1BDp7Rlbn8Rl3eUpHQrfWVDmehrsaqrjdjIYUaHBsuR6OiYAGXe0ojh4FrVAFbQw61TvoOAzq6ORJj4W+bbnHQGfA8oALPzpGQi9NNHT17B/2KOro4kmToYGO2MQscdCAS7FlVbXKUjp0jnTDSOjUPIdr0nR+Gt3UEYOLWplR0ITqP8ONgwi9Q7phPPQiYVEnq4wF/T7oaD0S2swtg1ktT4YFPXTg5rMIRTS0OdKpVb41POiBWVndk0dDe+LEQeaNYUIP7CAWGx2CJsx69ZpGrezBUJZJ8QUWtQr+LwU602vrKH4+mJQN3WsfxXYS6Mo6hqmT5cGkfOhuAK1WZhroypwneaBpLN9MGgPdmUpeEzmmgTYLtIkUy31GpUTXKm4pMxNBG/2RWKAmemEf3xiUHdPf0mv2+aeCrrFnNu+5u7T5BTka2vzJW8/5aaGNeflYJ9aWZamcU656La11+zOXsvsd7vKmY2zM9ND1Zut5P1OqLIsafTbbn+9vRkNX85tLfymqZ+YXQDe/VkPT+S19uRgxlL2Gty6stY8bk30N9NXUF7dn0ZQ98/xxOFfPny+Fntz0v8f/BpplCvQ/g6bNer+XKdACLdACLdACLdACLdA/ElqCAIEWaIEWaIEWaIEWaIGWVVOJXARaoAVaoAVaoAVaoAVaVk0FWqAFWqAFWqAFWqAF+vuZfwFenpcLDQWxRQAAAABJRU5ErkJggg==;" vertex="1" parent="1">
          <mxGeometry x="170" y="447" width="70" height="70" as="geometry" />
        </mxCell>
        <mxCell id="XwNVx1Ax-Z1lkmflQ19T-3" value="&lt;b&gt;&lt;font style=&quot;font-size: 18px;&quot;&gt;Asset&lt;/font&gt;&lt;/b&gt;" style="text;html=1;align=center;verticalAlign=middle;resizable=0;points=[];autosize=1;strokeColor=none;fillColor=none;" vertex="1" parent="1">
          <mxGeometry x="165" y="417" width="70" height="40" as="geometry" />
        </mxCell>
        <mxCell id="XwNVx1Ax-Z1lkmflQ19T-4" value="PC" style="image;html=1;labelBackgroundColor=#ffffff;image=img/lib/clip_art/computers/Monitor_Tower_128x128.png;rounded=1;shadow=0;comic=0;strokeWidth=2;fontSize=22" vertex="1" parent="1">
          <mxGeometry x="486.76" y="277" width="80" height="100" as="geometry" />
        </mxCell>
        <mxCell id="XwNVx1Ax-Z1lkmflQ19T-5" value="" style="shape=image;verticalLabelPosition=bottom;labelBackgroundColor=default;verticalAlign=top;aspect=fixed;imageAspect=0;image=data:image/png,iVBORw0KGgoAAAANSUhEUgAAAWgAAAFoBAMAAACIy3zmAAAAFVBMVEUiVp/u7u7///8LRZYXTpt2lcG5yN1B9Ek9AAASr0lEQVR42uydTXPbNhCGKQPWOUJinw1OpDMzJnVGSsZnR0p8TqQk//8nlJJI4oPYXQCUppMOeWgb16Eev1wCi3cXcJZfLrm6XH/FH7MZeoaeoWfoGXqGnqFn6Bn6/wjd/Vt0X/8r/jhDz9Az9Aw9Q8/QM/QMPUP/L6HnRcAMPUPP0DP0DD1Dz9Az9Aw9u6bzymWGnqFn6Bl6hp6hZ+gZeoaeXdMZ+obQzvVXQK8e/7y9fX97e/tz+coVOE7/FreBbm8rf39/5c/tVZ7/kd1//yP6tzsZWsjfGSuz7+IG0Ln889q0qCpT2elSqmnq51Ld/xT5JGj5WpftzZ7V4drQrRyvz2WTuZdqwe/fhEyHlq/l5Vas+CmvCS3kYytH5r94Xd7/zGUidP5juC8rOq2vAi02rcoqg6+6fBOJ0Ota34ZV4mrQ+SMvM/ziz/ciCTrfm2LUC3kt6Ie6ycirLg4J0OLBlqM4XAn6d62ygItdqCOh9/a9+VJeBfohjLmnjoNeu3H3vJNXgA5mbmU6UcdlBL/cm/NKTnZNxQMLZj594kHGpchs/G7spi4CxCaGuf3ELyIKelN4fvCp0PJbkUVd9TKPgX7y3L6VehK0+OEdnzHxm10EtPilfDE2DXrD/MMEpnUVA733Pq3dJOi9V1P1DouZehERHsz/OssJ0Gtg8s5RqbuZMQRa+mdadkiHlgCbylGp+Uu40v77sKVMhgbRwB+nn9RCoTfAJyiRCg2SqZyQupoKzS7JXgI0DNb+T1RqtguEfoQ+okqEhkNA5SFST1E6aw5p0E8wVk5J3RwmQvNzfMRD7zNMaXoACRrywJtUSdBrBConpVYibMjj4BS1S3BNxV7hSuNSt69/UD4NPk6+SFgEbHhGQONjdTUVuoqHFpiOF2hc6voQBH1EbxALvcdkzGmp2TII+p3C4iMSeoP5HJ3S2KDYpk1B0MgtqmjodyoAGh1A2CEEelNg8REHnaPRMUBjUc0XQRZCg+UCcdAb3FHKA6TmVZCFAKvDt5HQaLRqpVGp6xCXLP+lkLciDvqYhUGjUt8FOUwF8lZEQUseCo1JXYVAI8MUu4uCXhNmRx4ktQozILFZNQb6SYUqjUl9XgqQ0EhQd4uuQOh9FgyNSH0JasqPXCPxsYuAJkLahn5X4EFNVwKQoV6Gu6ZUSGdWvZbhj5f0I5+KWLPKBy3eqQilEanZLgQaea4qAvqYRSiNSb0IauE4Kip/CYEmQtpRGpF6K0Og4Whkd8HQmyZKaXgAORuJDmXeFSeCvIpsGwxNvoeO0rDU6uBAn0v36v6rzQHHRxUMTb2HI6VBqU9vohV4m9e6UU1dLi0OWKVGBELT76GrNCg1X9jQ8lvZlXd7aoHPC5dJNQSaZbFKg1K3b6JxZ6N0X341zVwwPrpMkYaWTbTSoNSVtKp7pVlxND4Xnl+2gdDke+hRGpJamXeWZnXvUk7u3fsSfxNp6KciXmlIan4wSpI/CtAX3eNvIgktfqgEpQGp652+s1Mpu5QoBGF/8F0YNDl4+JQGpG6Hj6Ek6X5HYaRTYEhe5kQ6PPZZitKA1C9DqVy692Vfjc8FB73PYa4pT1IakLoa7jxaDJoWI/x4KxmyCNgUadBABjFgjcOWGRYj/PYHQa8Tof1SNwP03huv4HMYvkmEQNMjnj+m/VGtvQuGW4xY+kJDe0afQkFKHyip2a67sy/fbQyL8QgOHyHQR8+4xSDoJSU17w0XX9S1mcXwueADXsgA6HHsFe4Qq6EZJfWwoH4o0LElB4N6mwTNFqORQUO/UFJv5QpeLDeGW8eQMY+CHue2hXA1NJSuKal7a+uDItw6KKhVQEyPypFsMRqEDWhOSd1DvweffT9qqQzs/aCgR3PLpeXE0tCAziipVRce7wELmpwfTmMeBe3+3a5KZUttQFNS1wJTmmu3Dlxz3dHQ7lNqDmMNTaWzEpe66+wR3pi23Lo9vM6koD8qX2uPLbUFzbeo1L3zCWTMlYZ+r4DeAElCfwAKr6aGFvTwLPxSn2e0E3QBrEwG6Cd4nUm4pk6OaESsKfXwRZ6RUt+haX7nEeRI70dFLgKcZKze+TRUFjQudV9OBKC50cTHwdJvHPS9P2G2oe1p0Z09X/DSrDa+oOoLE+Ryy/5xv5g4w2raURofQLZ4wUxp6F+g3xsHbSVEejntQDsZCPe6+QwtkSIDDNtR0BvllnpNqZVf6awU5s/mL0HsUQsacWvbBJaCLqAhz6yYo0q7vkn3ZWAYNowvKOxJaPentWfprubnKm0NH5saaA5RpPHlD3v+ORbafsl6qbHRYzS7CHz4qAfjCxo+ttHQPqmxcXrUJj4UezhmQYNt6+dnQUCP3+DCI7UFjQs9QEM68juqFEhCjyOPWYvXs/1tK40LPUzUQJ7XzT5Y0bWgoN/7qj0jqU1oQmidXayxORHtPBXx0GzhSm0pbQnt8cYGaKjSp7TF2KCZIAh99Ja4DazHxlaaErovm+RwbnEYCnYcXCVirqnXvRxJbebTlNAtdJ8xf1CU8bVH01doEQCoYUJvShOaFPq8XEKXrlwbX8crQrtSG9Ck0OflEm4ivwx2jH/M42lKW1I/lgpwmLxLqq6MtYITPe0hrQtsoQBCM/wBXSKv8Ht5koFCXqABE6mgoD8nQffdjP2t/a4pUCvaDtBQDUv00EAAfSKggQShtqT+NvyXCGhWqQZoaHGrja8Ga6AALQSehUgtwitF7ZJtgN4UlPHFU6BBb8qWOqJQZCoNCMnviG77Kk1pR2rfBVr5BvQebHVCe1wJ6A2yhSNRaBP6CJr9k6DBtglKalBobkADk4eG9s/0KhWakhrubCl0FyPwk2m37ikJGulA2GLMD0j1UR8kAYx5aoAGvoGARj7btuycC+kCUFpp4PZqhUP3uTHgmmLQjo+U25MkWd9Fsny90QuCRhcBaDW/hKVGNnr1OiETLj8gG/azS3sfAo0qxpdJQpvQ3yA/b4UNBM0hXWnbTQgV2oLeExajf0bmE5QGpV6jZ8OY0EfKF+X+JzEB+ly8jRX6CtBsErS97goT2uoX9c94NQW9mwLtlxoXOuOC6oFnd8gZJdOhexMjQujeNsWqiRp6fwPorIgWuvNyMbeO3xia3cUKbSn9UBC2+U2gsypWaAt6Da1cbwvtZqik0AHhYUAfbwLtLgZIoeOUvg10d3hHuNAhL2IstJ1PB0DbCYike/G7+QwT5ZPMsUVib3ABiwAami1Dd+Y4ORrmew3Q8jbQbqZHS/3fK82WocaSm1j+h0qPU2pSajo8ss8SXWtOhGbLcA8vQunF6pbh4Vu7UFI3xlmUfl/DgL6B0mwZY5fay1Ksqn9TaP8ikZBaGUr7WwrZ1xvGNAPWiLjUAdC7GyoNrcYlC4U+UtAcLI8mQjPQ98ClNqD3SdD1IdnLg20PXGrDy8vBOnKO9ZSxdGhYaEJqErqZCK1ShMalNpSWkAG58jeraa8PdU2bJKHpwwXQJjalTwxVCV6eVElCo1LT0FU+yTVFtugu8ZoLLHVF7pPW0En+NAyNC41Wt8hu0i0FTXTW8EShEanJvt12idhD+x+FkmnQlNBYxVZDc9BrWyFbeFKhaaHhvcHGeQYl5PTm6F7KioBmIUJvvLvkIKm31Obu09yB9shQ0PsQoV+HfbP33qZwW+kXanN3TUF/SYK2hV5Hddb0fTHw4KGGvjwg6Lcp0I7QZjvQCym13qoANUgZ54k214N2hDYar3hNd4vdDccKcDjo0dTnk4zvgHSFNlrcuNN/X2DQQAp5jh9sbuH/JLRtukJbvaak1BoaWNWevwHbiN33UEY1yC5H3q4BTUo9NMhCPd3nXkFsQmQ7Yof+R0ULbe/dort64d27urQ5pW1zRTV9n4W2oKkmyH7LIbz1lzrTbHTaqAs9fhXGQmO75Dyd6gdik7Vx2gHPsNVWOLRHaAea41L3Wz+hg2kuDbQXCGBhEw1tC/1UZiNoZ1cJ81t5K3hLEeWpKmoTpTuWMt8efAcal7rP4KHze5j+BS5QAMlI6MK3Ac6BdnaVOFJXK9wHuqylkPbp8VnFLrQz1dpCDwOaA21/lzNW93kluA1KEqZZm+RRe2w5LfRIaTuqpTcZhs5K6XrCsWT+hYS2X5eFV+gR9DMM3bdPg3svdtrKKYHcZBUFzXfEzk/mqeLa4dF31wuGzIdoq2GbelDQR7B8v/HssWXjernzIvabL6DWW8M0A6Jee6qB0GYOpxV0hzxE6GHfOGRt6uZ76Nhew1MN26Fv5HCGgg40JvSQL4FbsMnu6gBo5xnpxMLQwZnGMaGH1APc7D6Eh4QDiNih7958aMWzdqFaW/tsoWsg2wEC1jgEFNlFR23Bdv9q3x9mBpy1S84WehSXXYMbBL3V0MgmXArafWG6xbRtXJvQttDjBANeEhlrMeQgNs9vpBhBjyLrIrWVV5pKE0IPg+Z7PL+HZx/t9MHQK+Zb7DirDnNhiws9DD9+6OFOcGe/dvpg6NEPfJbS7lQyLQRb6PFiq3+RP2KW2QkLPLPmEAA9Cq1WS7dTyTBriIjmC+xFZDv9hD8A7+GpBYoMj1FS24rptIQZ43Q12uoMYHmhCwE/4bHTh0B71uO/SyASc2vPn2+5XR+QPrQ2A9SfyzPS6YOhx3fnjfLPCI7V61u5NgLpgWc7eH7wOH0IdMDJhJnXVPf6GkoiFcp2pdV/LnhQt2GaIdAr+neS+k8m9FoElYRrDNw4FBcMad9vw7reaZv+XkgdteMJrzbPTAbLaocQaLFPU9rbdNpmngI0zE4Hmwpq04mxfx+D/qVSlPYLbbxqo6A+W0sCnP/NNIA+1zTprF6gu5cZpzy633Gel/5t72yaE4dhMEwnbs9NZundPnBmxqFnzyR752PhTOmU//8TNgFCnQ/JkpPudDvqhWpokwdhx5Zt6Q2kft8im1AQQDnZ68iJAc6vD5cP+FAHKoReI5swtM4joHfgVr1XqNG1g0fvvuAe9TWyCUMT6t6SMzBeW2Ve8/6Ut1nJgZp0eSJC82uqQ46uRwbvyv5f3fJ8NJ5EfdsWJ0AHq9c7qqPrkcG7sifkq25hnA4cUvtNhWbrBICJAXUs35Z5bt7J/fOB8FNWPVChw7MPcqpL58rmaC94qmjpn8EHXLyVvgC0YWpfwBkYr90rm2ORl6rInzL/voi4wYkMveNBg46+zNA6qjPzqjnPDpm/eouNwZoMzdNzgT9jsu1DG/1yTk2LAxPsoEOzlHOQFn1Jn+zLRZrOIAff7rPeTRg6pMngiCnjJI0irHV4K31BaJYa1Bx09PV4ShA6JHJEhX53dGj4A5J0t9DjzyuGGlTKUDhDJrKogO6nCXvIW+kjSMIGBH8c7TgvKlV8Nxdl4KuiQodCLpKjWzoiMDRyBZexoH85mqcxR9+6fggaE8AzHOhQoyadUMc1wxsTebzeK10RoQMaxhRH33c9cWhM1HHLah5IKNHyNKqeuaFoM2MScC5jQuPFLyhJF90z8cCNMKFSzYTG2wfB0ap7bBG4kcI6Mhcaax+O4OjeubRhc4GOTVxoQhUaNLnFZSRofAznQhMUSDFHq1eaSDrcD5OHCGgsEgg7utiSoJFpaXlK+dCIwKwLp8atDA16h85c2NBYwYCgo+vBjNQ8EDl6BBoOKOA+4oZ27jtnn5AJtG/CVeNOhq03jnrBgQkA/tIzBVovY0I1BDp7Rlbn8Rl3eUpHQrfWVDmehrsaqrjdjIYUaHBsuR6OiYAGXe0ojh4FrVAFbQw61TvoOAzq6ORJj4W+bbnHQGfA8oALPzpGQi9NNHT17B/2KOro4kmToYGO2MQscdCAS7FlVbXKUjp0jnTDSOjUPIdr0nR+Gt3UEYOLWplR0ITqP8ONgwi9Q7phPPQiYVEnq4wF/T7oaD0S2swtg1ktT4YFPXTg5rMIRTS0OdKpVb41POiBWVndk0dDe+LEQeaNYUIP7CAWGx2CJsx69ZpGrezBUJZJ8QUWtQr+LwU602vrKH4+mJQN3WsfxXYS6Mo6hqmT5cGkfOhuAK1WZhroypwneaBpLN9MGgPdmUpeEzmmgTYLtIkUy31GpUTXKm4pMxNBG/2RWKAmemEf3xiUHdPf0mv2+aeCrrFnNu+5u7T5BTka2vzJW8/5aaGNeflYJ9aWZamcU656La11+zOXsvsd7vKmY2zM9ND1Zut5P1OqLIsafTbbn+9vRkNX85tLfymqZ+YXQDe/VkPT+S19uRgxlL2Gty6stY8bk30N9NXUF7dn0ZQ98/xxOFfPny+Fntz0v8f/BpplCvQ/g6bNer+XKdACLdACLdACLdACLdA/ElqCAIEWaIEWaIEWaIEWaIGWVVOJXARaoAVaoAVaoAVaoAVaVk0FWqAFWqAFWqAFWqAF+vuZfwFenpcLDQWxRQAAAABJRU5ErkJggg==;" vertex="1" parent="1">
          <mxGeometry x="205" y="617" width="70" height="70" as="geometry" />
        </mxCell>
        <mxCell id="XwNVx1Ax-Z1lkmflQ19T-6" value="&lt;b&gt;&lt;font style=&quot;font-size: 18px;&quot;&gt;Asset&lt;/font&gt;&lt;/b&gt;" style="text;html=1;align=center;verticalAlign=middle;resizable=0;points=[];autosize=1;strokeColor=none;fillColor=none;" vertex="1" parent="1">
          <mxGeometry x="200" y="587" width="70" height="40" as="geometry" />
        </mxCell>
        <mxCell id="XwNVx1Ax-Z1lkmflQ19T-7" value="Tablet" style="image;html=1;labelBackgroundColor=#ffffff;image=img/lib/clip_art/computers/iPad_128x128.png;rounded=1;shadow=0;comic=0;strokeWidth=2;fontSize=22" vertex="1" parent="1">
          <mxGeometry x="320" y="267" width="110" height="120" as="geometry" />
        </mxCell>
        <mxCell id="XwNVx1Ax-Z1lkmflQ19T-8" value="" style="shape=image;verticalLabelPosition=bottom;labelBackgroundColor=default;verticalAlign=top;aspect=fixed;imageAspect=0;image=data:image/png,iVBORw0KGgoAAAANSUhEUgAAAWgAAAFoBAMAAACIy3zmAAAAFVBMVEUiVp/u7u7///8LRZYXTpt2lcG5yN1B9Ek9AAASr0lEQVR42uydTXPbNhCGKQPWOUJinw1OpDMzJnVGSsZnR0p8TqQk//8nlJJI4oPYXQCUppMOeWgb16Eev1wCi3cXcJZfLrm6XH/FH7MZeoaeoWfoGXqGnqFn6Bn6/wjd/Vt0X/8r/jhDz9Az9Aw9Q8/QM/QMPUP/L6HnRcAMPUPP0DP0DD1Dz9Az9Aw9u6bzymWGnqFn6Bl6hp6hZ+gZeoaeXdMZ+obQzvVXQK8e/7y9fX97e/tz+coVOE7/FreBbm8rf39/5c/tVZ7/kd1//yP6tzsZWsjfGSuz7+IG0Ln889q0qCpT2elSqmnq51Ld/xT5JGj5WpftzZ7V4drQrRyvz2WTuZdqwe/fhEyHlq/l5Vas+CmvCS3kYytH5r94Xd7/zGUidP5juC8rOq2vAi02rcoqg6+6fBOJ0Ota34ZV4mrQ+SMvM/ziz/ciCTrfm2LUC3kt6Ie6ycirLg4J0OLBlqM4XAn6d62ygItdqCOh9/a9+VJeBfohjLmnjoNeu3H3vJNXgA5mbmU6UcdlBL/cm/NKTnZNxQMLZj594kHGpchs/G7spi4CxCaGuf3ELyIKelN4fvCp0PJbkUVd9TKPgX7y3L6VehK0+OEdnzHxm10EtPilfDE2DXrD/MMEpnUVA733Pq3dJOi9V1P1DouZehERHsz/OssJ0Gtg8s5RqbuZMQRa+mdadkiHlgCbylGp+Uu40v77sKVMhgbRwB+nn9RCoTfAJyiRCg2SqZyQupoKzS7JXgI0DNb+T1RqtguEfoQ+okqEhkNA5SFST1E6aw5p0E8wVk5J3RwmQvNzfMRD7zNMaXoACRrywJtUSdBrBConpVYibMjj4BS1S3BNxV7hSuNSt69/UD4NPk6+SFgEbHhGQONjdTUVuoqHFpiOF2hc6voQBH1EbxALvcdkzGmp2TII+p3C4iMSeoP5HJ3S2KDYpk1B0MgtqmjodyoAGh1A2CEEelNg8REHnaPRMUBjUc0XQRZCg+UCcdAb3FHKA6TmVZCFAKvDt5HQaLRqpVGp6xCXLP+lkLciDvqYhUGjUt8FOUwF8lZEQUseCo1JXYVAI8MUu4uCXhNmRx4ktQozILFZNQb6SYUqjUl9XgqQ0EhQd4uuQOh9FgyNSH0JasqPXCPxsYuAJkLahn5X4EFNVwKQoV6Gu6ZUSGdWvZbhj5f0I5+KWLPKBy3eqQilEanZLgQaea4qAvqYRSiNSb0IauE4Kip/CYEmQtpRGpF6K0Og4Whkd8HQmyZKaXgAORuJDmXeFSeCvIpsGwxNvoeO0rDU6uBAn0v36v6rzQHHRxUMTb2HI6VBqU9vohV4m9e6UU1dLi0OWKVGBELT76GrNCg1X9jQ8lvZlXd7aoHPC5dJNQSaZbFKg1K3b6JxZ6N0X341zVwwPrpMkYaWTbTSoNSVtKp7pVlxND4Xnl+2gdDke+hRGpJamXeWZnXvUk7u3fsSfxNp6KciXmlIan4wSpI/CtAX3eNvIgktfqgEpQGp652+s1Mpu5QoBGF/8F0YNDl4+JQGpG6Hj6Ek6X5HYaRTYEhe5kQ6PPZZitKA1C9DqVy692Vfjc8FB73PYa4pT1IakLoa7jxaDJoWI/x4KxmyCNgUadBABjFgjcOWGRYj/PYHQa8Tof1SNwP03huv4HMYvkmEQNMjnj+m/VGtvQuGW4xY+kJDe0afQkFKHyip2a67sy/fbQyL8QgOHyHQR8+4xSDoJSU17w0XX9S1mcXwueADXsgA6HHsFe4Qq6EZJfWwoH4o0LElB4N6mwTNFqORQUO/UFJv5QpeLDeGW8eQMY+CHue2hXA1NJSuKal7a+uDItw6KKhVQEyPypFsMRqEDWhOSd1DvweffT9qqQzs/aCgR3PLpeXE0tCAziipVRce7wELmpwfTmMeBe3+3a5KZUttQFNS1wJTmmu3Dlxz3dHQ7lNqDmMNTaWzEpe66+wR3pi23Lo9vM6koD8qX2uPLbUFzbeo1L3zCWTMlYZ+r4DeAElCfwAKr6aGFvTwLPxSn2e0E3QBrEwG6Cd4nUm4pk6OaESsKfXwRZ6RUt+haX7nEeRI70dFLgKcZKze+TRUFjQudV9OBKC50cTHwdJvHPS9P2G2oe1p0Z09X/DSrDa+oOoLE+Ryy/5xv5g4w2raURofQLZ4wUxp6F+g3xsHbSVEejntQDsZCPe6+QwtkSIDDNtR0BvllnpNqZVf6awU5s/mL0HsUQsacWvbBJaCLqAhz6yYo0q7vkn3ZWAYNowvKOxJaPentWfprubnKm0NH5saaA5RpPHlD3v+ORbafsl6qbHRYzS7CHz4qAfjCxo+ttHQPqmxcXrUJj4UezhmQYNt6+dnQUCP3+DCI7UFjQs9QEM68juqFEhCjyOPWYvXs/1tK40LPUzUQJ7XzT5Y0bWgoN/7qj0jqU1oQmidXayxORHtPBXx0GzhSm0pbQnt8cYGaKjSp7TF2KCZIAh99Ja4DazHxlaaErovm+RwbnEYCnYcXCVirqnXvRxJbebTlNAtdJ8xf1CU8bVH01doEQCoYUJvShOaFPq8XEKXrlwbX8crQrtSG9Ck0OflEm4ivwx2jH/M42lKW1I/lgpwmLxLqq6MtYITPe0hrQtsoQBCM/wBXSKv8Ht5koFCXqABE6mgoD8nQffdjP2t/a4pUCvaDtBQDUv00EAAfSKggQShtqT+NvyXCGhWqQZoaHGrja8Ga6AALQSehUgtwitF7ZJtgN4UlPHFU6BBb8qWOqJQZCoNCMnviG77Kk1pR2rfBVr5BvQebHVCe1wJ6A2yhSNRaBP6CJr9k6DBtglKalBobkADk4eG9s/0KhWakhrubCl0FyPwk2m37ikJGulA2GLMD0j1UR8kAYx5aoAGvoGARj7btuycC+kCUFpp4PZqhUP3uTHgmmLQjo+U25MkWd9Fsny90QuCRhcBaDW/hKVGNnr1OiETLj8gG/azS3sfAo0qxpdJQpvQ3yA/b4UNBM0hXWnbTQgV2oLeExajf0bmE5QGpV6jZ8OY0EfKF+X+JzEB+ly8jRX6CtBsErS97goT2uoX9c94NQW9mwLtlxoXOuOC6oFnd8gZJdOhexMjQujeNsWqiRp6fwPorIgWuvNyMbeO3xia3cUKbSn9UBC2+U2gsypWaAt6Da1cbwvtZqik0AHhYUAfbwLtLgZIoeOUvg10d3hHuNAhL2IstJ1PB0DbCYike/G7+QwT5ZPMsUVib3ABiwAami1Dd+Y4ORrmew3Q8jbQbqZHS/3fK82WocaSm1j+h0qPU2pSajo8ss8SXWtOhGbLcA8vQunF6pbh4Vu7UFI3xlmUfl/DgL6B0mwZY5fay1Ksqn9TaP8ikZBaGUr7WwrZ1xvGNAPWiLjUAdC7GyoNrcYlC4U+UtAcLI8mQjPQ98ClNqD3SdD1IdnLg20PXGrDy8vBOnKO9ZSxdGhYaEJqErqZCK1ShMalNpSWkAG58jeraa8PdU2bJKHpwwXQJjalTwxVCV6eVElCo1LT0FU+yTVFtugu8ZoLLHVF7pPW0En+NAyNC41Wt8hu0i0FTXTW8EShEanJvt12idhD+x+FkmnQlNBYxVZDc9BrWyFbeFKhaaHhvcHGeQYl5PTm6F7KioBmIUJvvLvkIKm31Obu09yB9shQ0PsQoV+HfbP33qZwW+kXanN3TUF/SYK2hV5Hddb0fTHw4KGGvjwg6Lcp0I7QZjvQCym13qoANUgZ54k214N2hDYar3hNd4vdDccKcDjo0dTnk4zvgHSFNlrcuNN/X2DQQAp5jh9sbuH/JLRtukJbvaak1BoaWNWevwHbiN33UEY1yC5H3q4BTUo9NMhCPd3nXkFsQmQ7Yof+R0ULbe/dort64d27urQ5pW1zRTV9n4W2oKkmyH7LIbz1lzrTbHTaqAs9fhXGQmO75Dyd6gdik7Vx2gHPsNVWOLRHaAea41L3Wz+hg2kuDbQXCGBhEw1tC/1UZiNoZ1cJ81t5K3hLEeWpKmoTpTuWMt8efAcal7rP4KHze5j+BS5QAMlI6MK3Ac6BdnaVOFJXK9wHuqylkPbp8VnFLrQz1dpCDwOaA21/lzNW93kluA1KEqZZm+RRe2w5LfRIaTuqpTcZhs5K6XrCsWT+hYS2X5eFV+gR9DMM3bdPg3svdtrKKYHcZBUFzXfEzk/mqeLa4dF31wuGzIdoq2GbelDQR7B8v/HssWXjernzIvabL6DWW8M0A6Jee6qB0GYOpxV0hzxE6GHfOGRt6uZ76Nhew1MN26Fv5HCGgg40JvSQL4FbsMnu6gBo5xnpxMLQwZnGMaGH1APc7D6Eh4QDiNih7958aMWzdqFaW/tsoWsg2wEC1jgEFNlFR23Bdv9q3x9mBpy1S84WehSXXYMbBL3V0MgmXArafWG6xbRtXJvQttDjBANeEhlrMeQgNs9vpBhBjyLrIrWVV5pKE0IPg+Z7PL+HZx/t9MHQK+Zb7DirDnNhiws9DD9+6OFOcGe/dvpg6NEPfJbS7lQyLQRb6PFiq3+RP2KW2QkLPLPmEAA9Cq1WS7dTyTBriIjmC+xFZDv9hD8A7+GpBYoMj1FS24rptIQZ43Q12uoMYHmhCwE/4bHTh0B71uO/SyASc2vPn2+5XR+QPrQ2A9SfyzPS6YOhx3fnjfLPCI7V61u5NgLpgWc7eH7wOH0IdMDJhJnXVPf6GkoiFcp2pdV/LnhQt2GaIdAr+neS+k8m9FoElYRrDNw4FBcMad9vw7reaZv+XkgdteMJrzbPTAbLaocQaLFPU9rbdNpmngI0zE4Hmwpq04mxfx+D/qVSlPYLbbxqo6A+W0sCnP/NNIA+1zTprF6gu5cZpzy633Gel/5t72yaE4dhMEwnbs9NZundPnBmxqFnzyR752PhTOmU//8TNgFCnQ/JkpPudDvqhWpokwdhx5Zt6Q2kft8im1AQQDnZ68iJAc6vD5cP+FAHKoReI5swtM4joHfgVr1XqNG1g0fvvuAe9TWyCUMT6t6SMzBeW2Ve8/6Ut1nJgZp0eSJC82uqQ46uRwbvyv5f3fJ8NJ5EfdsWJ0AHq9c7qqPrkcG7sifkq25hnA4cUvtNhWbrBICJAXUs35Z5bt7J/fOB8FNWPVChw7MPcqpL58rmaC94qmjpn8EHXLyVvgC0YWpfwBkYr90rm2ORl6rInzL/voi4wYkMveNBg46+zNA6qjPzqjnPDpm/eouNwZoMzdNzgT9jsu1DG/1yTk2LAxPsoEOzlHOQFn1Jn+zLRZrOIAff7rPeTRg6pMngiCnjJI0irHV4K31BaJYa1Bx09PV4ShA6JHJEhX53dGj4A5J0t9DjzyuGGlTKUDhDJrKogO6nCXvIW+kjSMIGBH8c7TgvKlV8Nxdl4KuiQodCLpKjWzoiMDRyBZexoH85mqcxR9+6fggaE8AzHOhQoyadUMc1wxsTebzeK10RoQMaxhRH33c9cWhM1HHLah5IKNHyNKqeuaFoM2MScC5jQuPFLyhJF90z8cCNMKFSzYTG2wfB0ap7bBG4kcI6Mhcaax+O4OjeubRhc4GOTVxoQhUaNLnFZSRofAznQhMUSDFHq1eaSDrcD5OHCGgsEgg7utiSoJFpaXlK+dCIwKwLp8atDA16h85c2NBYwYCgo+vBjNQ8EDl6BBoOKOA+4oZ27jtnn5AJtG/CVeNOhq03jnrBgQkA/tIzBVovY0I1BDp7Rlbn8Rl3eUpHQrfWVDmehrsaqrjdjIYUaHBsuR6OiYAGXe0ojh4FrVAFbQw61TvoOAzq6ORJj4W+bbnHQGfA8oALPzpGQi9NNHT17B/2KOro4kmToYGO2MQscdCAS7FlVbXKUjp0jnTDSOjUPIdr0nR+Gt3UEYOLWplR0ITqP8ONgwi9Q7phPPQiYVEnq4wF/T7oaD0S2swtg1ktT4YFPXTg5rMIRTS0OdKpVb41POiBWVndk0dDe+LEQeaNYUIP7CAWGx2CJsx69ZpGrezBUJZJ8QUWtQr+LwU602vrKH4+mJQN3WsfxXYS6Mo6hqmT5cGkfOhuAK1WZhroypwneaBpLN9MGgPdmUpeEzmmgTYLtIkUy31GpUTXKm4pMxNBG/2RWKAmemEf3xiUHdPf0mv2+aeCrrFnNu+5u7T5BTka2vzJW8/5aaGNeflYJ9aWZamcU656La11+zOXsvsd7vKmY2zM9ND1Zut5P1OqLIsafTbbn+9vRkNX85tLfymqZ+YXQDe/VkPT+S19uRgxlL2Gty6stY8bk30N9NXUF7dn0ZQ98/xxOFfPny+Fntz0v8f/BpplCvQ/g6bNer+XKdACLdACLdACLdACLdA/ElqCAIEWaIEWaIEWaIEWaIGWVVOJXARaoAVaoAVaoAVaoAVaVk0FWqAFWqAFWqAFWqAF+vuZfwFenpcLDQWxRQAAAABJRU5ErkJggg==;" vertex="1" parent="1">
          <mxGeometry x="335" y="677" width="70" height="70" as="geometry" />
        </mxCell>
        <mxCell id="XwNVx1Ax-Z1lkmflQ19T-9" value="&lt;b&gt;&lt;font style=&quot;font-size: 18px;&quot;&gt;Asset&lt;/font&gt;&lt;/b&gt;" style="text;html=1;align=center;verticalAlign=middle;resizable=0;points=[];autosize=1;strokeColor=none;fillColor=none;" vertex="1" parent="1">
          <mxGeometry x="330" y="647" width="70" height="40" as="geometry" />
        </mxCell>
        <mxCell id="XwNVx1Ax-Z1lkmflQ19T-10" value="" style="shape=image;verticalLabelPosition=bottom;labelBackgroundColor=default;verticalAlign=top;aspect=fixed;imageAspect=0;image=data:image/png,iVBORw0KGgoAAAANSUhEUgAAAWgAAAFoBAMAAACIy3zmAAAAFVBMVEUiVp/u7u7///8LRZYXTpt2lcG5yN1B9Ek9AAASr0lEQVR42uydTXPbNhCGKQPWOUJinw1OpDMzJnVGSsZnR0p8TqQk//8nlJJI4oPYXQCUppMOeWgb16Eev1wCi3cXcJZfLrm6XH/FH7MZeoaeoWfoGXqGnqFn6Bn6/wjd/Vt0X/8r/jhDz9Az9Aw9Q8/QM/QMPUP/L6HnRcAMPUPP0DP0DD1Dz9Az9Aw9u6bzymWGnqFn6Bl6hp6hZ+gZeoaeXdMZ+obQzvVXQK8e/7y9fX97e/tz+coVOE7/FreBbm8rf39/5c/tVZ7/kd1//yP6tzsZWsjfGSuz7+IG0Ln889q0qCpT2elSqmnq51Ld/xT5JGj5WpftzZ7V4drQrRyvz2WTuZdqwe/fhEyHlq/l5Vas+CmvCS3kYytH5r94Xd7/zGUidP5juC8rOq2vAi02rcoqg6+6fBOJ0Ota34ZV4mrQ+SMvM/ziz/ciCTrfm2LUC3kt6Ie6ycirLg4J0OLBlqM4XAn6d62ygItdqCOh9/a9+VJeBfohjLmnjoNeu3H3vJNXgA5mbmU6UcdlBL/cm/NKTnZNxQMLZj594kHGpchs/G7spi4CxCaGuf3ELyIKelN4fvCp0PJbkUVd9TKPgX7y3L6VehK0+OEdnzHxm10EtPilfDE2DXrD/MMEpnUVA733Pq3dJOi9V1P1DouZehERHsz/OssJ0Gtg8s5RqbuZMQRa+mdadkiHlgCbylGp+Uu40v77sKVMhgbRwB+nn9RCoTfAJyiRCg2SqZyQupoKzS7JXgI0DNb+T1RqtguEfoQ+okqEhkNA5SFST1E6aw5p0E8wVk5J3RwmQvNzfMRD7zNMaXoACRrywJtUSdBrBConpVYibMjj4BS1S3BNxV7hSuNSt69/UD4NPk6+SFgEbHhGQONjdTUVuoqHFpiOF2hc6voQBH1EbxALvcdkzGmp2TII+p3C4iMSeoP5HJ3S2KDYpk1B0MgtqmjodyoAGh1A2CEEelNg8REHnaPRMUBjUc0XQRZCg+UCcdAb3FHKA6TmVZCFAKvDt5HQaLRqpVGp6xCXLP+lkLciDvqYhUGjUt8FOUwF8lZEQUseCo1JXYVAI8MUu4uCXhNmRx4ktQozILFZNQb6SYUqjUl9XgqQ0EhQd4uuQOh9FgyNSH0JasqPXCPxsYuAJkLahn5X4EFNVwKQoV6Gu6ZUSGdWvZbhj5f0I5+KWLPKBy3eqQilEanZLgQaea4qAvqYRSiNSb0IauE4Kip/CYEmQtpRGpF6K0Og4Whkd8HQmyZKaXgAORuJDmXeFSeCvIpsGwxNvoeO0rDU6uBAn0v36v6rzQHHRxUMTb2HI6VBqU9vohV4m9e6UU1dLi0OWKVGBELT76GrNCg1X9jQ8lvZlXd7aoHPC5dJNQSaZbFKg1K3b6JxZ6N0X341zVwwPrpMkYaWTbTSoNSVtKp7pVlxND4Xnl+2gdDke+hRGpJamXeWZnXvUk7u3fsSfxNp6KciXmlIan4wSpI/CtAX3eNvIgktfqgEpQGp652+s1Mpu5QoBGF/8F0YNDl4+JQGpG6Hj6Ek6X5HYaRTYEhe5kQ6PPZZitKA1C9DqVy692Vfjc8FB73PYa4pT1IakLoa7jxaDJoWI/x4KxmyCNgUadBABjFgjcOWGRYj/PYHQa8Tof1SNwP03huv4HMYvkmEQNMjnj+m/VGtvQuGW4xY+kJDe0afQkFKHyip2a67sy/fbQyL8QgOHyHQR8+4xSDoJSU17w0XX9S1mcXwueADXsgA6HHsFe4Qq6EZJfWwoH4o0LElB4N6mwTNFqORQUO/UFJv5QpeLDeGW8eQMY+CHue2hXA1NJSuKal7a+uDItw6KKhVQEyPypFsMRqEDWhOSd1DvweffT9qqQzs/aCgR3PLpeXE0tCAziipVRce7wELmpwfTmMeBe3+3a5KZUttQFNS1wJTmmu3Dlxz3dHQ7lNqDmMNTaWzEpe66+wR3pi23Lo9vM6koD8qX2uPLbUFzbeo1L3zCWTMlYZ+r4DeAElCfwAKr6aGFvTwLPxSn2e0E3QBrEwG6Cd4nUm4pk6OaESsKfXwRZ6RUt+haX7nEeRI70dFLgKcZKze+TRUFjQudV9OBKC50cTHwdJvHPS9P2G2oe1p0Z09X/DSrDa+oOoLE+Ryy/5xv5g4w2raURofQLZ4wUxp6F+g3xsHbSVEejntQDsZCPe6+QwtkSIDDNtR0BvllnpNqZVf6awU5s/mL0HsUQsacWvbBJaCLqAhz6yYo0q7vkn3ZWAYNowvKOxJaPentWfprubnKm0NH5saaA5RpPHlD3v+ORbafsl6qbHRYzS7CHz4qAfjCxo+ttHQPqmxcXrUJj4UezhmQYNt6+dnQUCP3+DCI7UFjQs9QEM68juqFEhCjyOPWYvXs/1tK40LPUzUQJ7XzT5Y0bWgoN/7qj0jqU1oQmidXayxORHtPBXx0GzhSm0pbQnt8cYGaKjSp7TF2KCZIAh99Ja4DazHxlaaErovm+RwbnEYCnYcXCVirqnXvRxJbebTlNAtdJ8xf1CU8bVH01doEQCoYUJvShOaFPq8XEKXrlwbX8crQrtSG9Ck0OflEm4ivwx2jH/M42lKW1I/lgpwmLxLqq6MtYITPe0hrQtsoQBCM/wBXSKv8Ht5koFCXqABE6mgoD8nQffdjP2t/a4pUCvaDtBQDUv00EAAfSKggQShtqT+NvyXCGhWqQZoaHGrja8Ga6AALQSehUgtwitF7ZJtgN4UlPHFU6BBb8qWOqJQZCoNCMnviG77Kk1pR2rfBVr5BvQebHVCe1wJ6A2yhSNRaBP6CJr9k6DBtglKalBobkADk4eG9s/0KhWakhrubCl0FyPwk2m37ikJGulA2GLMD0j1UR8kAYx5aoAGvoGARj7btuycC+kCUFpp4PZqhUP3uTHgmmLQjo+U25MkWd9Fsny90QuCRhcBaDW/hKVGNnr1OiETLj8gG/azS3sfAo0qxpdJQpvQ3yA/b4UNBM0hXWnbTQgV2oLeExajf0bmE5QGpV6jZ8OY0EfKF+X+JzEB+ly8jRX6CtBsErS97goT2uoX9c94NQW9mwLtlxoXOuOC6oFnd8gZJdOhexMjQujeNsWqiRp6fwPorIgWuvNyMbeO3xia3cUKbSn9UBC2+U2gsypWaAt6Da1cbwvtZqik0AHhYUAfbwLtLgZIoeOUvg10d3hHuNAhL2IstJ1PB0DbCYike/G7+QwT5ZPMsUVib3ABiwAami1Dd+Y4ORrmew3Q8jbQbqZHS/3fK82WocaSm1j+h0qPU2pSajo8ss8SXWtOhGbLcA8vQunF6pbh4Vu7UFI3xlmUfl/DgL6B0mwZY5fay1Ksqn9TaP8ikZBaGUr7WwrZ1xvGNAPWiLjUAdC7GyoNrcYlC4U+UtAcLI8mQjPQ98ClNqD3SdD1IdnLg20PXGrDy8vBOnKO9ZSxdGhYaEJqErqZCK1ShMalNpSWkAG58jeraa8PdU2bJKHpwwXQJjalTwxVCV6eVElCo1LT0FU+yTVFtugu8ZoLLHVF7pPW0En+NAyNC41Wt8hu0i0FTXTW8EShEanJvt12idhD+x+FkmnQlNBYxVZDc9BrWyFbeFKhaaHhvcHGeQYl5PTm6F7KioBmIUJvvLvkIKm31Obu09yB9shQ0PsQoV+HfbP33qZwW+kXanN3TUF/SYK2hV5Hddb0fTHw4KGGvjwg6Lcp0I7QZjvQCym13qoANUgZ54k214N2hDYar3hNd4vdDccKcDjo0dTnk4zvgHSFNlrcuNN/X2DQQAp5jh9sbuH/JLRtukJbvaak1BoaWNWevwHbiN33UEY1yC5H3q4BTUo9NMhCPd3nXkFsQmQ7Yof+R0ULbe/dort64d27urQ5pW1zRTV9n4W2oKkmyH7LIbz1lzrTbHTaqAs9fhXGQmO75Dyd6gdik7Vx2gHPsNVWOLRHaAea41L3Wz+hg2kuDbQXCGBhEw1tC/1UZiNoZ1cJ81t5K3hLEeWpKmoTpTuWMt8efAcal7rP4KHze5j+BS5QAMlI6MK3Ac6BdnaVOFJXK9wHuqylkPbp8VnFLrQz1dpCDwOaA21/lzNW93kluA1KEqZZm+RRe2w5LfRIaTuqpTcZhs5K6XrCsWT+hYS2X5eFV+gR9DMM3bdPg3svdtrKKYHcZBUFzXfEzk/mqeLa4dF31wuGzIdoq2GbelDQR7B8v/HssWXjernzIvabL6DWW8M0A6Jee6qB0GYOpxV0hzxE6GHfOGRt6uZ76Nhew1MN26Fv5HCGgg40JvSQL4FbsMnu6gBo5xnpxMLQwZnGMaGH1APc7D6Eh4QDiNih7958aMWzdqFaW/tsoWsg2wEC1jgEFNlFR23Bdv9q3x9mBpy1S84WehSXXYMbBL3V0MgmXArafWG6xbRtXJvQttDjBANeEhlrMeQgNs9vpBhBjyLrIrWVV5pKE0IPg+Z7PL+HZx/t9MHQK+Zb7DirDnNhiws9DD9+6OFOcGe/dvpg6NEPfJbS7lQyLQRb6PFiq3+RP2KW2QkLPLPmEAA9Cq1WS7dTyTBriIjmC+xFZDv9hD8A7+GpBYoMj1FS24rptIQZ43Q12uoMYHmhCwE/4bHTh0B71uO/SyASc2vPn2+5XR+QPrQ2A9SfyzPS6YOhx3fnjfLPCI7V61u5NgLpgWc7eH7wOH0IdMDJhJnXVPf6GkoiFcp2pdV/LnhQt2GaIdAr+neS+k8m9FoElYRrDNw4FBcMad9vw7reaZv+XkgdteMJrzbPTAbLaocQaLFPU9rbdNpmngI0zE4Hmwpq04mxfx+D/qVSlPYLbbxqo6A+W0sCnP/NNIA+1zTprF6gu5cZpzy633Gel/5t72yaE4dhMEwnbs9NZundPnBmxqFnzyR752PhTOmU//8TNgFCnQ/JkpPudDvqhWpokwdhx5Zt6Q2kft8im1AQQDnZ68iJAc6vD5cP+FAHKoReI5swtM4joHfgVr1XqNG1g0fvvuAe9TWyCUMT6t6SMzBeW2Ve8/6Ut1nJgZp0eSJC82uqQ46uRwbvyv5f3fJ8NJ5EfdsWJ0AHq9c7qqPrkcG7sifkq25hnA4cUvtNhWbrBICJAXUs35Z5bt7J/fOB8FNWPVChw7MPcqpL58rmaC94qmjpn8EHXLyVvgC0YWpfwBkYr90rm2ORl6rInzL/voi4wYkMveNBg46+zNA6qjPzqjnPDpm/eouNwZoMzdNzgT9jsu1DG/1yTk2LAxPsoEOzlHOQFn1Jn+zLRZrOIAff7rPeTRg6pMngiCnjJI0irHV4K31BaJYa1Bx09PV4ShA6JHJEhX53dGj4A5J0t9DjzyuGGlTKUDhDJrKogO6nCXvIW+kjSMIGBH8c7TgvKlV8Nxdl4KuiQodCLpKjWzoiMDRyBZexoH85mqcxR9+6fggaE8AzHOhQoyadUMc1wxsTebzeK10RoQMaxhRH33c9cWhM1HHLah5IKNHyNKqeuaFoM2MScC5jQuPFLyhJF90z8cCNMKFSzYTG2wfB0ap7bBG4kcI6Mhcaax+O4OjeubRhc4GOTVxoQhUaNLnFZSRofAznQhMUSDFHq1eaSDrcD5OHCGgsEgg7utiSoJFpaXlK+dCIwKwLp8atDA16h85c2NBYwYCgo+vBjNQ8EDl6BBoOKOA+4oZ27jtnn5AJtG/CVeNOhq03jnrBgQkA/tIzBVovY0I1BDp7Rlbn8Rl3eUpHQrfWVDmehrsaqrjdjIYUaHBsuR6OiYAGXe0ojh4FrVAFbQw61TvoOAzq6ORJj4W+bbnHQGfA8oALPzpGQi9NNHT17B/2KOro4kmToYGO2MQscdCAS7FlVbXKUjp0jnTDSOjUPIdr0nR+Gt3UEYOLWplR0ITqP8ONgwi9Q7phPPQiYVEnq4wF/T7oaD0S2swtg1ktT4YFPXTg5rMIRTS0OdKpVb41POiBWVndk0dDe+LEQeaNYUIP7CAWGx2CJsx69ZpGrezBUJZJ8QUWtQr+LwU602vrKH4+mJQN3WsfxXYS6Mo6hqmT5cGkfOhuAK1WZhroypwneaBpLN9MGgPdmUpeEzmmgTYLtIkUy31GpUTXKm4pMxNBG/2RWKAmemEf3xiUHdPf0mv2+aeCrrFnNu+5u7T5BTka2vzJW8/5aaGNeflYJ9aWZamcU656La11+zOXsvsd7vKmY2zM9ND1Zut5P1OqLIsafTbbn+9vRkNX85tLfymqZ+YXQDe/VkPT+S19uRgxlL2Gty6stY8bk30N9NXUF7dn0ZQ98/xxOFfPny+Fntz0v8f/BpplCvQ/g6bNer+XKdACLdACLdACLdACLdA/ElqCAIEWaIEWaIEWaIEWaIGWVVOJXARaoAVaoAVaoAVaoAVaVk0FWqAFWqAFWqAFWqAF+vuZfwFenpcLDQWxRQAAAABJRU5ErkJggg==;" vertex="1" parent="1">
          <mxGeometry x="518" y="667" width="70" height="70" as="geometry" />
        </mxCell>
        <mxCell id="XwNVx1Ax-Z1lkmflQ19T-11" value="&lt;b&gt;&lt;font style=&quot;font-size: 18px;&quot;&gt;Asset&lt;/font&gt;&lt;/b&gt;" style="text;html=1;align=center;verticalAlign=middle;resizable=0;points=[];autosize=1;strokeColor=none;fillColor=none;" vertex="1" parent="1">
          <mxGeometry x="513" y="637" width="70" height="40" as="geometry" />
        </mxCell>
        <mxCell id="XwNVx1Ax-Z1lkmflQ19T-12" value="" style="shape=image;verticalLabelPosition=bottom;labelBackgroundColor=default;verticalAlign=top;aspect=fixed;imageAspect=0;image=data:image/png,iVBORw0KGgoAAAANSUhEUgAAAWgAAAFoBAMAAACIy3zmAAAAFVBMVEUiVp/u7u7///8LRZYXTpt2lcG5yN1B9Ek9AAASr0lEQVR42uydTXPbNhCGKQPWOUJinw1OpDMzJnVGSsZnR0p8TqQk//8nlJJI4oPYXQCUppMOeWgb16Eev1wCi3cXcJZfLrm6XH/FH7MZeoaeoWfoGXqGnqFn6Bn6/wjd/Vt0X/8r/jhDz9Az9Aw9Q8/QM/QMPUP/L6HnRcAMPUPP0DP0DD1Dz9Az9Aw9u6bzymWGnqFn6Bl6hp6hZ+gZeoaeXdMZ+obQzvVXQK8e/7y9fX97e/tz+coVOE7/FreBbm8rf39/5c/tVZ7/kd1//yP6tzsZWsjfGSuz7+IG0Ln889q0qCpT2elSqmnq51Ld/xT5JGj5WpftzZ7V4drQrRyvz2WTuZdqwe/fhEyHlq/l5Vas+CmvCS3kYytH5r94Xd7/zGUidP5juC8rOq2vAi02rcoqg6+6fBOJ0Ota34ZV4mrQ+SMvM/ziz/ciCTrfm2LUC3kt6Ie6ycirLg4J0OLBlqM4XAn6d62ygItdqCOh9/a9+VJeBfohjLmnjoNeu3H3vJNXgA5mbmU6UcdlBL/cm/NKTnZNxQMLZj594kHGpchs/G7spi4CxCaGuf3ELyIKelN4fvCp0PJbkUVd9TKPgX7y3L6VehK0+OEdnzHxm10EtPilfDE2DXrD/MMEpnUVA733Pq3dJOi9V1P1DouZehERHsz/OssJ0Gtg8s5RqbuZMQRa+mdadkiHlgCbylGp+Uu40v77sKVMhgbRwB+nn9RCoTfAJyiRCg2SqZyQupoKzS7JXgI0DNb+T1RqtguEfoQ+okqEhkNA5SFST1E6aw5p0E8wVk5J3RwmQvNzfMRD7zNMaXoACRrywJtUSdBrBConpVYibMjj4BS1S3BNxV7hSuNSt69/UD4NPk6+SFgEbHhGQONjdTUVuoqHFpiOF2hc6voQBH1EbxALvcdkzGmp2TII+p3C4iMSeoP5HJ3S2KDYpk1B0MgtqmjodyoAGh1A2CEEelNg8REHnaPRMUBjUc0XQRZCg+UCcdAb3FHKA6TmVZCFAKvDt5HQaLRqpVGp6xCXLP+lkLciDvqYhUGjUt8FOUwF8lZEQUseCo1JXYVAI8MUu4uCXhNmRx4ktQozILFZNQb6SYUqjUl9XgqQ0EhQd4uuQOh9FgyNSH0JasqPXCPxsYuAJkLahn5X4EFNVwKQoV6Gu6ZUSGdWvZbhj5f0I5+KWLPKBy3eqQilEanZLgQaea4qAvqYRSiNSb0IauE4Kip/CYEmQtpRGpF6K0Og4Whkd8HQmyZKaXgAORuJDmXeFSeCvIpsGwxNvoeO0rDU6uBAn0v36v6rzQHHRxUMTb2HI6VBqU9vohV4m9e6UU1dLi0OWKVGBELT76GrNCg1X9jQ8lvZlXd7aoHPC5dJNQSaZbFKg1K3b6JxZ6N0X341zVwwPrpMkYaWTbTSoNSVtKp7pVlxND4Xnl+2gdDke+hRGpJamXeWZnXvUk7u3fsSfxNp6KciXmlIan4wSpI/CtAX3eNvIgktfqgEpQGp652+s1Mpu5QoBGF/8F0YNDl4+JQGpG6Hj6Ek6X5HYaRTYEhe5kQ6PPZZitKA1C9DqVy692Vfjc8FB73PYa4pT1IakLoa7jxaDJoWI/x4KxmyCNgUadBABjFgjcOWGRYj/PYHQa8Tof1SNwP03huv4HMYvkmEQNMjnj+m/VGtvQuGW4xY+kJDe0afQkFKHyip2a67sy/fbQyL8QgOHyHQR8+4xSDoJSU17w0XX9S1mcXwueADXsgA6HHsFe4Qq6EZJfWwoH4o0LElB4N6mwTNFqORQUO/UFJv5QpeLDeGW8eQMY+CHue2hXA1NJSuKal7a+uDItw6KKhVQEyPypFsMRqEDWhOSd1DvweffT9qqQzs/aCgR3PLpeXE0tCAziipVRce7wELmpwfTmMeBe3+3a5KZUttQFNS1wJTmmu3Dlxz3dHQ7lNqDmMNTaWzEpe66+wR3pi23Lo9vM6koD8qX2uPLbUFzbeo1L3zCWTMlYZ+r4DeAElCfwAKr6aGFvTwLPxSn2e0E3QBrEwG6Cd4nUm4pk6OaESsKfXwRZ6RUt+haX7nEeRI70dFLgKcZKze+TRUFjQudV9OBKC50cTHwdJvHPS9P2G2oe1p0Z09X/DSrDa+oOoLE+Ryy/5xv5g4w2raURofQLZ4wUxp6F+g3xsHbSVEejntQDsZCPe6+QwtkSIDDNtR0BvllnpNqZVf6awU5s/mL0HsUQsacWvbBJaCLqAhz6yYo0q7vkn3ZWAYNowvKOxJaPentWfprubnKm0NH5saaA5RpPHlD3v+ORbafsl6qbHRYzS7CHz4qAfjCxo+ttHQPqmxcXrUJj4UezhmQYNt6+dnQUCP3+DCI7UFjQs9QEM68juqFEhCjyOPWYvXs/1tK40LPUzUQJ7XzT5Y0bWgoN/7qj0jqU1oQmidXayxORHtPBXx0GzhSm0pbQnt8cYGaKjSp7TF2KCZIAh99Ja4DazHxlaaErovm+RwbnEYCnYcXCVirqnXvRxJbebTlNAtdJ8xf1CU8bVH01doEQCoYUJvShOaFPq8XEKXrlwbX8crQrtSG9Ck0OflEm4ivwx2jH/M42lKW1I/lgpwmLxLqq6MtYITPe0hrQtsoQBCM/wBXSKv8Ht5koFCXqABE6mgoD8nQffdjP2t/a4pUCvaDtBQDUv00EAAfSKggQShtqT+NvyXCGhWqQZoaHGrja8Ga6AALQSehUgtwitF7ZJtgN4UlPHFU6BBb8qWOqJQZCoNCMnviG77Kk1pR2rfBVr5BvQebHVCe1wJ6A2yhSNRaBP6CJr9k6DBtglKalBobkADk4eG9s/0KhWakhrubCl0FyPwk2m37ikJGulA2GLMD0j1UR8kAYx5aoAGvoGARj7btuycC+kCUFpp4PZqhUP3uTHgmmLQjo+U25MkWd9Fsny90QuCRhcBaDW/hKVGNnr1OiETLj8gG/azS3sfAo0qxpdJQpvQ3yA/b4UNBM0hXWnbTQgV2oLeExajf0bmE5QGpV6jZ8OY0EfKF+X+JzEB+ly8jRX6CtBsErS97goT2uoX9c94NQW9mwLtlxoXOuOC6oFnd8gZJdOhexMjQujeNsWqiRp6fwPorIgWuvNyMbeO3xia3cUKbSn9UBC2+U2gsypWaAt6Da1cbwvtZqik0AHhYUAfbwLtLgZIoeOUvg10d3hHuNAhL2IstJ1PB0DbCYike/G7+QwT5ZPMsUVib3ABiwAami1Dd+Y4ORrmew3Q8jbQbqZHS/3fK82WocaSm1j+h0qPU2pSajo8ss8SXWtOhGbLcA8vQunF6pbh4Vu7UFI3xlmUfl/DgL6B0mwZY5fay1Ksqn9TaP8ikZBaGUr7WwrZ1xvGNAPWiLjUAdC7GyoNrcYlC4U+UtAcLI8mQjPQ98ClNqD3SdD1IdnLg20PXGrDy8vBOnKO9ZSxdGhYaEJqErqZCK1ShMalNpSWkAG58jeraa8PdU2bJKHpwwXQJjalTwxVCV6eVElCo1LT0FU+yTVFtugu8ZoLLHVF7pPW0En+NAyNC41Wt8hu0i0FTXTW8EShEanJvt12idhD+x+FkmnQlNBYxVZDc9BrWyFbeFKhaaHhvcHGeQYl5PTm6F7KioBmIUJvvLvkIKm31Obu09yB9shQ0PsQoV+HfbP33qZwW+kXanN3TUF/SYK2hV5Hddb0fTHw4KGGvjwg6Lcp0I7QZjvQCym13qoANUgZ54k214N2hDYar3hNd4vdDccKcDjo0dTnk4zvgHSFNlrcuNN/X2DQQAp5jh9sbuH/JLRtukJbvaak1BoaWNWevwHbiN33UEY1yC5H3q4BTUo9NMhCPd3nXkFsQmQ7Yof+R0ULbe/dort64d27urQ5pW1zRTV9n4W2oKkmyH7LIbz1lzrTbHTaqAs9fhXGQmO75Dyd6gdik7Vx2gHPsNVWOLRHaAea41L3Wz+hg2kuDbQXCGBhEw1tC/1UZiNoZ1cJ81t5K3hLEeWpKmoTpTuWMt8efAcal7rP4KHze5j+BS5QAMlI6MK3Ac6BdnaVOFJXK9wHuqylkPbp8VnFLrQz1dpCDwOaA21/lzNW93kluA1KEqZZm+RRe2w5LfRIaTuqpTcZhs5K6XrCsWT+hYS2X5eFV+gR9DMM3bdPg3svdtrKKYHcZBUFzXfEzk/mqeLa4dF31wuGzIdoq2GbelDQR7B8v/HssWXjernzIvabL6DWW8M0A6Jee6qB0GYOpxV0hzxE6GHfOGRt6uZ76Nhew1MN26Fv5HCGgg40JvSQL4FbsMnu6gBo5xnpxMLQwZnGMaGH1APc7D6Eh4QDiNih7958aMWzdqFaW/tsoWsg2wEC1jgEFNlFR23Bdv9q3x9mBpy1S84WehSXXYMbBL3V0MgmXArafWG6xbRtXJvQttDjBANeEhlrMeQgNs9vpBhBjyLrIrWVV5pKE0IPg+Z7PL+HZx/t9MHQK+Zb7DirDnNhiws9DD9+6OFOcGe/dvpg6NEPfJbS7lQyLQRb6PFiq3+RP2KW2QkLPLPmEAA9Cq1WS7dTyTBriIjmC+xFZDv9hD8A7+GpBYoMj1FS24rptIQZ43Q12uoMYHmhCwE/4bHTh0B71uO/SyASc2vPn2+5XR+QPrQ2A9SfyzPS6YOhx3fnjfLPCI7V61u5NgLpgWc7eH7wOH0IdMDJhJnXVPf6GkoiFcp2pdV/LnhQt2GaIdAr+neS+k8m9FoElYRrDNw4FBcMad9vw7reaZv+XkgdteMJrzbPTAbLaocQaLFPU9rbdNpmngI0zE4Hmwpq04mxfx+D/qVSlPYLbbxqo6A+W0sCnP/NNIA+1zTprF6gu5cZpzy633Gel/5t72yaE4dhMEwnbs9NZundPnBmxqFnzyR752PhTOmU//8TNgFCnQ/JkpPudDvqhWpokwdhx5Zt6Q2kft8im1AQQDnZ68iJAc6vD5cP+FAHKoReI5swtM4joHfgVr1XqNG1g0fvvuAe9TWyCUMT6t6SMzBeW2Ve8/6Ut1nJgZp0eSJC82uqQ46uRwbvyv5f3fJ8NJ5EfdsWJ0AHq9c7qqPrkcG7sifkq25hnA4cUvtNhWbrBICJAXUs35Z5bt7J/fOB8FNWPVChw7MPcqpL58rmaC94qmjpn8EHXLyVvgC0YWpfwBkYr90rm2ORl6rInzL/voi4wYkMveNBg46+zNA6qjPzqjnPDpm/eouNwZoMzdNzgT9jsu1DG/1yTk2LAxPsoEOzlHOQFn1Jn+zLRZrOIAff7rPeTRg6pMngiCnjJI0irHV4K31BaJYa1Bx09PV4ShA6JHJEhX53dGj4A5J0t9DjzyuGGlTKUDhDJrKogO6nCXvIW+kjSMIGBH8c7TgvKlV8Nxdl4KuiQodCLpKjWzoiMDRyBZexoH85mqcxR9+6fggaE8AzHOhQoyadUMc1wxsTebzeK10RoQMaxhRH33c9cWhM1HHLah5IKNHyNKqeuaFoM2MScC5jQuPFLyhJF90z8cCNMKFSzYTG2wfB0ap7bBG4kcI6Mhcaax+O4OjeubRhc4GOTVxoQhUaNLnFZSRofAznQhMUSDFHq1eaSDrcD5OHCGgsEgg7utiSoJFpaXlK+dCIwKwLp8atDA16h85c2NBYwYCgo+vBjNQ8EDl6BBoOKOA+4oZ27jtnn5AJtG/CVeNOhq03jnrBgQkA/tIzBVovY0I1BDp7Rlbn8Rl3eUpHQrfWVDmehrsaqrjdjIYUaHBsuR6OiYAGXe0ojh4FrVAFbQw61TvoOAzq6ORJj4W+bbnHQGfA8oALPzpGQi9NNHT17B/2KOro4kmToYGO2MQscdCAS7FlVbXKUjp0jnTDSOjUPIdr0nR+Gt3UEYOLWplR0ITqP8ONgwi9Q7phPPQiYVEnq4wF/T7oaD0S2swtg1ktT4YFPXTg5rMIRTS0OdKpVb41POiBWVndk0dDe+LEQeaNYUIP7CAWGx2CJsx69ZpGrezBUJZJ8QUWtQr+LwU602vrKH4+mJQN3WsfxXYS6Mo6hqmT5cGkfOhuAK1WZhroypwneaBpLN9MGgPdmUpeEzmmgTYLtIkUy31GpUTXKm4pMxNBG/2RWKAmemEf3xiUHdPf0mv2+aeCrrFnNu+5u7T5BTka2vzJW8/5aaGNeflYJ9aWZamcU656La11+zOXsvsd7vKmY2zM9ND1Zut5P1OqLIsafTbbn+9vRkNX85tLfymqZ+YXQDe/VkPT+S19uRgxlL2Gty6stY8bk30N9NXUF7dn0ZQ98/xxOFfPny+Fntz0v8f/BpplCvQ/g6bNer+XKdACLdACLdACLdACLdA/ElqCAIEWaIEWaIEWaIEWaIGWVVOJXARaoAVaoAVaoAVaoAVaVk0FWqAFWqAFWqAFWqAF+vuZfwFenpcLDQWxRQAAAABJRU5ErkJggg==;" vertex="1" parent="1">
          <mxGeometry x="725" y="647" width="70" height="70" as="geometry" />
        </mxCell>
        <mxCell id="XwNVx1Ax-Z1lkmflQ19T-13" value="&lt;b&gt;&lt;font style=&quot;font-size: 18px;&quot;&gt;Asset&lt;/font&gt;&lt;/b&gt;" style="text;html=1;align=center;verticalAlign=middle;resizable=0;points=[];autosize=1;strokeColor=none;fillColor=none;" vertex="1" parent="1">
          <mxGeometry x="720" y="617" width="70" height="40" as="geometry" />
        </mxCell>
        <mxCell id="XwNVx1Ax-Z1lkmflQ19T-14" value="" style="shape=image;verticalLabelPosition=bottom;labelBackgroundColor=default;verticalAlign=top;aspect=fixed;imageAspect=0;image=data:image/png,iVBORw0KGgoAAAANSUhEUgAAAWgAAAFoBAMAAACIy3zmAAAAFVBMVEUiVp/u7u7///8LRZYXTpt2lcG5yN1B9Ek9AAASr0lEQVR42uydTXPbNhCGKQPWOUJinw1OpDMzJnVGSsZnR0p8TqQk//8nlJJI4oPYXQCUppMOeWgb16Eev1wCi3cXcJZfLrm6XH/FH7MZeoaeoWfoGXqGnqFn6Bn6/wjd/Vt0X/8r/jhDz9Az9Aw9Q8/QM/QMPUP/L6HnRcAMPUPP0DP0DD1Dz9Az9Aw9u6bzymWGnqFn6Bl6hp6hZ+gZeoaeXdMZ+obQzvVXQK8e/7y9fX97e/tz+coVOE7/FreBbm8rf39/5c/tVZ7/kd1//yP6tzsZWsjfGSuz7+IG0Ln889q0qCpT2elSqmnq51Ld/xT5JGj5WpftzZ7V4drQrRyvz2WTuZdqwe/fhEyHlq/l5Vas+CmvCS3kYytH5r94Xd7/zGUidP5juC8rOq2vAi02rcoqg6+6fBOJ0Ota34ZV4mrQ+SMvM/ziz/ciCTrfm2LUC3kt6Ie6ycirLg4J0OLBlqM4XAn6d62ygItdqCOh9/a9+VJeBfohjLmnjoNeu3H3vJNXgA5mbmU6UcdlBL/cm/NKTnZNxQMLZj594kHGpchs/G7spi4CxCaGuf3ELyIKelN4fvCp0PJbkUVd9TKPgX7y3L6VehK0+OEdnzHxm10EtPilfDE2DXrD/MMEpnUVA733Pq3dJOi9V1P1DouZehERHsz/OssJ0Gtg8s5RqbuZMQRa+mdadkiHlgCbylGp+Uu40v77sKVMhgbRwB+nn9RCoTfAJyiRCg2SqZyQupoKzS7JXgI0DNb+T1RqtguEfoQ+okqEhkNA5SFST1E6aw5p0E8wVk5J3RwmQvNzfMRD7zNMaXoACRrywJtUSdBrBConpVYibMjj4BS1S3BNxV7hSuNSt69/UD4NPk6+SFgEbHhGQONjdTUVuoqHFpiOF2hc6voQBH1EbxALvcdkzGmp2TII+p3C4iMSeoP5HJ3S2KDYpk1B0MgtqmjodyoAGh1A2CEEelNg8REHnaPRMUBjUc0XQRZCg+UCcdAb3FHKA6TmVZCFAKvDt5HQaLRqpVGp6xCXLP+lkLciDvqYhUGjUt8FOUwF8lZEQUseCo1JXYVAI8MUu4uCXhNmRx4ktQozILFZNQb6SYUqjUl9XgqQ0EhQd4uuQOh9FgyNSH0JasqPXCPxsYuAJkLahn5X4EFNVwKQoV6Gu6ZUSGdWvZbhj5f0I5+KWLPKBy3eqQilEanZLgQaea4qAvqYRSiNSb0IauE4Kip/CYEmQtpRGpF6K0Og4Whkd8HQmyZKaXgAORuJDmXeFSeCvIpsGwxNvoeO0rDU6uBAn0v36v6rzQHHRxUMTb2HI6VBqU9vohV4m9e6UU1dLi0OWKVGBELT76GrNCg1X9jQ8lvZlXd7aoHPC5dJNQSaZbFKg1K3b6JxZ6N0X341zVwwPrpMkYaWTbTSoNSVtKp7pVlxND4Xnl+2gdDke+hRGpJamXeWZnXvUk7u3fsSfxNp6KciXmlIan4wSpI/CtAX3eNvIgktfqgEpQGp652+s1Mpu5QoBGF/8F0YNDl4+JQGpG6Hj6Ek6X5HYaRTYEhe5kQ6PPZZitKA1C9DqVy692Vfjc8FB73PYa4pT1IakLoa7jxaDJoWI/x4KxmyCNgUadBABjFgjcOWGRYj/PYHQa8Tof1SNwP03huv4HMYvkmEQNMjnj+m/VGtvQuGW4xY+kJDe0afQkFKHyip2a67sy/fbQyL8QgOHyHQR8+4xSDoJSU17w0XX9S1mcXwueADXsgA6HHsFe4Qq6EZJfWwoH4o0LElB4N6mwTNFqORQUO/UFJv5QpeLDeGW8eQMY+CHue2hXA1NJSuKal7a+uDItw6KKhVQEyPypFsMRqEDWhOSd1DvweffT9qqQzs/aCgR3PLpeXE0tCAziipVRce7wELmpwfTmMeBe3+3a5KZUttQFNS1wJTmmu3Dlxz3dHQ7lNqDmMNTaWzEpe66+wR3pi23Lo9vM6koD8qX2uPLbUFzbeo1L3zCWTMlYZ+r4DeAElCfwAKr6aGFvTwLPxSn2e0E3QBrEwG6Cd4nUm4pk6OaESsKfXwRZ6RUt+haX7nEeRI70dFLgKcZKze+TRUFjQudV9OBKC50cTHwdJvHPS9P2G2oe1p0Z09X/DSrDa+oOoLE+Ryy/5xv5g4w2raURofQLZ4wUxp6F+g3xsHbSVEejntQDsZCPe6+QwtkSIDDNtR0BvllnpNqZVf6awU5s/mL0HsUQsacWvbBJaCLqAhz6yYo0q7vkn3ZWAYNowvKOxJaPentWfprubnKm0NH5saaA5RpPHlD3v+ORbafsl6qbHRYzS7CHz4qAfjCxo+ttHQPqmxcXrUJj4UezhmQYNt6+dnQUCP3+DCI7UFjQs9QEM68juqFEhCjyOPWYvXs/1tK40LPUzUQJ7XzT5Y0bWgoN/7qj0jqU1oQmidXayxORHtPBXx0GzhSm0pbQnt8cYGaKjSp7TF2KCZIAh99Ja4DazHxlaaErovm+RwbnEYCnYcXCVirqnXvRxJbebTlNAtdJ8xf1CU8bVH01doEQCoYUJvShOaFPq8XEKXrlwbX8crQrtSG9Ck0OflEm4ivwx2jH/M42lKW1I/lgpwmLxLqq6MtYITPe0hrQtsoQBCM/wBXSKv8Ht5koFCXqABE6mgoD8nQffdjP2t/a4pUCvaDtBQDUv00EAAfSKggQShtqT+NvyXCGhWqQZoaHGrja8Ga6AALQSehUgtwitF7ZJtgN4UlPHFU6BBb8qWOqJQZCoNCMnviG77Kk1pR2rfBVr5BvQebHVCe1wJ6A2yhSNRaBP6CJr9k6DBtglKalBobkADk4eG9s/0KhWakhrubCl0FyPwk2m37ikJGulA2GLMD0j1UR8kAYx5aoAGvoGARj7btuycC+kCUFpp4PZqhUP3uTHgmmLQjo+U25MkWd9Fsny90QuCRhcBaDW/hKVGNnr1OiETLj8gG/azS3sfAo0qxpdJQpvQ3yA/b4UNBM0hXWnbTQgV2oLeExajf0bmE5QGpV6jZ8OY0EfKF+X+JzEB+ly8jRX6CtBsErS97goT2uoX9c94NQW9mwLtlxoXOuOC6oFnd8gZJdOhexMjQujeNsWqiRp6fwPorIgWuvNyMbeO3xia3cUKbSn9UBC2+U2gsypWaAt6Da1cbwvtZqik0AHhYUAfbwLtLgZIoeOUvg10d3hHuNAhL2IstJ1PB0DbCYike/G7+QwT5ZPMsUVib3ABiwAami1Dd+Y4ORrmew3Q8jbQbqZHS/3fK82WocaSm1j+h0qPU2pSajo8ss8SXWtOhGbLcA8vQunF6pbh4Vu7UFI3xlmUfl/DgL6B0mwZY5fay1Ksqn9TaP8ikZBaGUr7WwrZ1xvGNAPWiLjUAdC7GyoNrcYlC4U+UtAcLI8mQjPQ98ClNqD3SdD1IdnLg20PXGrDy8vBOnKO9ZSxdGhYaEJqErqZCK1ShMalNpSWkAG58jeraa8PdU2bJKHpwwXQJjalTwxVCV6eVElCo1LT0FU+yTVFtugu8ZoLLHVF7pPW0En+NAyNC41Wt8hu0i0FTXTW8EShEanJvt12idhD+x+FkmnQlNBYxVZDc9BrWyFbeFKhaaHhvcHGeQYl5PTm6F7KioBmIUJvvLvkIKm31Obu09yB9shQ0PsQoV+HfbP33qZwW+kXanN3TUF/SYK2hV5Hddb0fTHw4KGGvjwg6Lcp0I7QZjvQCym13qoANUgZ54k214N2hDYar3hNd4vdDccKcDjo0dTnk4zvgHSFNlrcuNN/X2DQQAp5jh9sbuH/JLRtukJbvaak1BoaWNWevwHbiN33UEY1yC5H3q4BTUo9NMhCPd3nXkFsQmQ7Yof+R0ULbe/dort64d27urQ5pW1zRTV9n4W2oKkmyH7LIbz1lzrTbHTaqAs9fhXGQmO75Dyd6gdik7Vx2gHPsNVWOLRHaAea41L3Wz+hg2kuDbQXCGBhEw1tC/1UZiNoZ1cJ81t5K3hLEeWpKmoTpTuWMt8efAcal7rP4KHze5j+BS5QAMlI6MK3Ac6BdnaVOFJXK9wHuqylkPbp8VnFLrQz1dpCDwOaA21/lzNW93kluA1KEqZZm+RRe2w5LfRIaTuqpTcZhs5K6XrCsWT+hYS2X5eFV+gR9DMM3bdPg3svdtrKKYHcZBUFzXfEzk/mqeLa4dF31wuGzIdoq2GbelDQR7B8v/HssWXjernzIvabL6DWW8M0A6Jee6qB0GYOpxV0hzxE6GHfOGRt6uZ76Nhew1MN26Fv5HCGgg40JvSQL4FbsMnu6gBo5xnpxMLQwZnGMaGH1APc7D6Eh4QDiNih7958aMWzdqFaW/tsoWsg2wEC1jgEFNlFR23Bdv9q3x9mBpy1S84WehSXXYMbBL3V0MgmXArafWG6xbRtXJvQttDjBANeEhlrMeQgNs9vpBhBjyLrIrWVV5pKE0IPg+Z7PL+HZx/t9MHQK+Zb7DirDnNhiws9DD9+6OFOcGe/dvpg6NEPfJbS7lQyLQRb6PFiq3+RP2KW2QkLPLPmEAA9Cq1WS7dTyTBriIjmC+xFZDv9hD8A7+GpBYoMj1FS24rptIQZ43Q12uoMYHmhCwE/4bHTh0B71uO/SyASc2vPn2+5XR+QPrQ2A9SfyzPS6YOhx3fnjfLPCI7V61u5NgLpgWc7eH7wOH0IdMDJhJnXVPf6GkoiFcp2pdV/LnhQt2GaIdAr+neS+k8m9FoElYRrDNw4FBcMad9vw7reaZv+XkgdteMJrzbPTAbLaocQaLFPU9rbdNpmngI0zE4Hmwpq04mxfx+D/qVSlPYLbbxqo6A+W0sCnP/NNIA+1zTprF6gu5cZpzy633Gel/5t72yaE4dhMEwnbs9NZundPnBmxqFnzyR752PhTOmU//8TNgFCnQ/JkpPudDvqhWpokwdhx5Zt6Q2kft8im1AQQDnZ68iJAc6vD5cP+FAHKoReI5swtM4joHfgVr1XqNG1g0fvvuAe9TWyCUMT6t6SMzBeW2Ve8/6Ut1nJgZp0eSJC82uqQ46uRwbvyv5f3fJ8NJ5EfdsWJ0AHq9c7qqPrkcG7sifkq25hnA4cUvtNhWbrBICJAXUs35Z5bt7J/fOB8FNWPVChw7MPcqpL58rmaC94qmjpn8EHXLyVvgC0YWpfwBkYr90rm2ORl6rInzL/voi4wYkMveNBg46+zNA6qjPzqjnPDpm/eouNwZoMzdNzgT9jsu1DG/1yTk2LAxPsoEOzlHOQFn1Jn+zLRZrOIAff7rPeTRg6pMngiCnjJI0irHV4K31BaJYa1Bx09PV4ShA6JHJEhX53dGj4A5J0t9DjzyuGGlTKUDhDJrKogO6nCXvIW+kjSMIGBH8c7TgvKlV8Nxdl4KuiQodCLpKjWzoiMDRyBZexoH85mqcxR9+6fggaE8AzHOhQoyadUMc1wxsTebzeK10RoQMaxhRH33c9cWhM1HHLah5IKNHyNKqeuaFoM2MScC5jQuPFLyhJF90z8cCNMKFSzYTG2wfB0ap7bBG4kcI6Mhcaax+O4OjeubRhc4GOTVxoQhUaNLnFZSRofAznQhMUSDFHq1eaSDrcD5OHCGgsEgg7utiSoJFpaXlK+dCIwKwLp8atDA16h85c2NBYwYCgo+vBjNQ8EDl6BBoOKOA+4oZ27jtnn5AJtG/CVeNOhq03jnrBgQkA/tIzBVovY0I1BDp7Rlbn8Rl3eUpHQrfWVDmehrsaqrjdjIYUaHBsuR6OiYAGXe0ojh4FrVAFbQw61TvoOAzq6ORJj4W+bbnHQGfA8oALPzpGQi9NNHT17B/2KOro4kmToYGO2MQscdCAS7FlVbXKUjp0jnTDSOjUPIdr0nR+Gt3UEYOLWplR0ITqP8ONgwi9Q7phPPQiYVEnq4wF/T7oaD0S2swtg1ktT4YFPXTg5rMIRTS0OdKpVb41POiBWVndk0dDe+LEQeaNYUIP7CAWGx2CJsx69ZpGrezBUJZJ8QUWtQr+LwU602vrKH4+mJQN3WsfxXYS6Mo6hqmT5cGkfOhuAK1WZhroypwneaBpLN9MGgPdmUpeEzmmgTYLtIkUy31GpUTXKm4pMxNBG/2RWKAmemEf3xiUHdPf0mv2+aeCrrFnNu+5u7T5BTka2vzJW8/5aaGNeflYJ9aWZamcU656La11+zOXsvsd7vKmY2zM9ND1Zut5P1OqLIsafTbbn+9vRkNX85tLfymqZ+YXQDe/VkPT+S19uRgxlL2Gty6stY8bk30N9NXUF7dn0ZQ98/xxOFfPny+Fntz0v8f/BpplCvQ/g6bNer+XKdACLdACLdACLdACLdA/ElqCAIEWaIEWaIEWaIEWaIGWVVOJXARaoAVaoAVaoAVaoAVaVk0FWqAFWqAFWqAFWqAF+vuZfwFenpcLDQWxRQAAAABJRU5ErkJggg==;" vertex="1" parent="1">
          <mxGeometry x="785" y="547" width="70" height="70" as="geometry" />
        </mxCell>
        <mxCell id="XwNVx1Ax-Z1lkmflQ19T-15" value="&lt;b&gt;&lt;font style=&quot;font-size: 18px;&quot;&gt;Asset&lt;/font&gt;&lt;/b&gt;" style="text;html=1;align=center;verticalAlign=middle;resizable=0;points=[];autosize=1;strokeColor=none;fillColor=none;" vertex="1" parent="1">
          <mxGeometry x="780" y="517" width="70" height="40" as="geometry" />
        </mxCell>
        <mxCell id="XwNVx1Ax-Z1lkmflQ19T-16" value="" style="shape=image;verticalLabelPosition=bottom;labelBackgroundColor=default;verticalAlign=top;aspect=fixed;imageAspect=0;image=data:image/png,iVBORw0KGgoAAAANSUhEUgAAAWgAAAFoBAMAAACIy3zmAAAAFVBMVEUiVp/u7u7///8LRZYXTpt2lcG5yN1B9Ek9AAASr0lEQVR42uydTXPbNhCGKQPWOUJinw1OpDMzJnVGSsZnR0p8TqQk//8nlJJI4oPYXQCUppMOeWgb16Eev1wCi3cXcJZfLrm6XH/FH7MZeoaeoWfoGXqGnqFn6Bn6/wjd/Vt0X/8r/jhDz9Az9Aw9Q8/QM/QMPUP/L6HnRcAMPUPP0DP0DD1Dz9Az9Aw9u6bzymWGnqFn6Bl6hp6hZ+gZeoaeXdMZ+obQzvVXQK8e/7y9fX97e/tz+coVOE7/FreBbm8rf39/5c/tVZ7/kd1//yP6tzsZWsjfGSuz7+IG0Ln889q0qCpT2elSqmnq51Ld/xT5JGj5WpftzZ7V4drQrRyvz2WTuZdqwe/fhEyHlq/l5Vas+CmvCS3kYytH5r94Xd7/zGUidP5juC8rOq2vAi02rcoqg6+6fBOJ0Ota34ZV4mrQ+SMvM/ziz/ciCTrfm2LUC3kt6Ie6ycirLg4J0OLBlqM4XAn6d62ygItdqCOh9/a9+VJeBfohjLmnjoNeu3H3vJNXgA5mbmU6UcdlBL/cm/NKTnZNxQMLZj594kHGpchs/G7spi4CxCaGuf3ELyIKelN4fvCp0PJbkUVd9TKPgX7y3L6VehK0+OEdnzHxm10EtPilfDE2DXrD/MMEpnUVA733Pq3dJOi9V1P1DouZehERHsz/OssJ0Gtg8s5RqbuZMQRa+mdadkiHlgCbylGp+Uu40v77sKVMhgbRwB+nn9RCoTfAJyiRCg2SqZyQupoKzS7JXgI0DNb+T1RqtguEfoQ+okqEhkNA5SFST1E6aw5p0E8wVk5J3RwmQvNzfMRD7zNMaXoACRrywJtUSdBrBConpVYibMjj4BS1S3BNxV7hSuNSt69/UD4NPk6+SFgEbHhGQONjdTUVuoqHFpiOF2hc6voQBH1EbxALvcdkzGmp2TII+p3C4iMSeoP5HJ3S2KDYpk1B0MgtqmjodyoAGh1A2CEEelNg8REHnaPRMUBjUc0XQRZCg+UCcdAb3FHKA6TmVZCFAKvDt5HQaLRqpVGp6xCXLP+lkLciDvqYhUGjUt8FOUwF8lZEQUseCo1JXYVAI8MUu4uCXhNmRx4ktQozILFZNQb6SYUqjUl9XgqQ0EhQd4uuQOh9FgyNSH0JasqPXCPxsYuAJkLahn5X4EFNVwKQoV6Gu6ZUSGdWvZbhj5f0I5+KWLPKBy3eqQilEanZLgQaea4qAvqYRSiNSb0IauE4Kip/CYEmQtpRGpF6K0Og4Whkd8HQmyZKaXgAORuJDmXeFSeCvIpsGwxNvoeO0rDU6uBAn0v36v6rzQHHRxUMTb2HI6VBqU9vohV4m9e6UU1dLi0OWKVGBELT76GrNCg1X9jQ8lvZlXd7aoHPC5dJNQSaZbFKg1K3b6JxZ6N0X341zVwwPrpMkYaWTbTSoNSVtKp7pVlxND4Xnl+2gdDke+hRGpJamXeWZnXvUk7u3fsSfxNp6KciXmlIan4wSpI/CtAX3eNvIgktfqgEpQGp652+s1Mpu5QoBGF/8F0YNDl4+JQGpG6Hj6Ek6X5HYaRTYEhe5kQ6PPZZitKA1C9DqVy692Vfjc8FB73PYa4pT1IakLoa7jxaDJoWI/x4KxmyCNgUadBABjFgjcOWGRYj/PYHQa8Tof1SNwP03huv4HMYvkmEQNMjnj+m/VGtvQuGW4xY+kJDe0afQkFKHyip2a67sy/fbQyL8QgOHyHQR8+4xSDoJSU17w0XX9S1mcXwueADXsgA6HHsFe4Qq6EZJfWwoH4o0LElB4N6mwTNFqORQUO/UFJv5QpeLDeGW8eQMY+CHue2hXA1NJSuKal7a+uDItw6KKhVQEyPypFsMRqEDWhOSd1DvweffT9qqQzs/aCgR3PLpeXE0tCAziipVRce7wELmpwfTmMeBe3+3a5KZUttQFNS1wJTmmu3Dlxz3dHQ7lNqDmMNTaWzEpe66+wR3pi23Lo9vM6koD8qX2uPLbUFzbeo1L3zCWTMlYZ+r4DeAElCfwAKr6aGFvTwLPxSn2e0E3QBrEwG6Cd4nUm4pk6OaESsKfXwRZ6RUt+haX7nEeRI70dFLgKcZKze+TRUFjQudV9OBKC50cTHwdJvHPS9P2G2oe1p0Z09X/DSrDa+oOoLE+Ryy/5xv5g4w2raURofQLZ4wUxp6F+g3xsHbSVEejntQDsZCPe6+QwtkSIDDNtR0BvllnpNqZVf6awU5s/mL0HsUQsacWvbBJaCLqAhz6yYo0q7vkn3ZWAYNowvKOxJaPentWfprubnKm0NH5saaA5RpPHlD3v+ORbafsl6qbHRYzS7CHz4qAfjCxo+ttHQPqmxcXrUJj4UezhmQYNt6+dnQUCP3+DCI7UFjQs9QEM68juqFEhCjyOPWYvXs/1tK40LPUzUQJ7XzT5Y0bWgoN/7qj0jqU1oQmidXayxORHtPBXx0GzhSm0pbQnt8cYGaKjSp7TF2KCZIAh99Ja4DazHxlaaErovm+RwbnEYCnYcXCVirqnXvRxJbebTlNAtdJ8xf1CU8bVH01doEQCoYUJvShOaFPq8XEKXrlwbX8crQrtSG9Ck0OflEm4ivwx2jH/M42lKW1I/lgpwmLxLqq6MtYITPe0hrQtsoQBCM/wBXSKv8Ht5koFCXqABE6mgoD8nQffdjP2t/a4pUCvaDtBQDUv00EAAfSKggQShtqT+NvyXCGhWqQZoaHGrja8Ga6AALQSehUgtwitF7ZJtgN4UlPHFU6BBb8qWOqJQZCoNCMnviG77Kk1pR2rfBVr5BvQebHVCe1wJ6A2yhSNRaBP6CJr9k6DBtglKalBobkADk4eG9s/0KhWakhrubCl0FyPwk2m37ikJGulA2GLMD0j1UR8kAYx5aoAGvoGARj7btuycC+kCUFpp4PZqhUP3uTHgmmLQjo+U25MkWd9Fsny90QuCRhcBaDW/hKVGNnr1OiETLj8gG/azS3sfAo0qxpdJQpvQ3yA/b4UNBM0hXWnbTQgV2oLeExajf0bmE5QGpV6jZ8OY0EfKF+X+JzEB+ly8jRX6CtBsErS97goT2uoX9c94NQW9mwLtlxoXOuOC6oFnd8gZJdOhexMjQujeNsWqiRp6fwPorIgWuvNyMbeO3xia3cUKbSn9UBC2+U2gsypWaAt6Da1cbwvtZqik0AHhYUAfbwLtLgZIoeOUvg10d3hHuNAhL2IstJ1PB0DbCYike/G7+QwT5ZPMsUVib3ABiwAami1Dd+Y4ORrmew3Q8jbQbqZHS/3fK82WocaSm1j+h0qPU2pSajo8ss8SXWtOhGbLcA8vQunF6pbh4Vu7UFI3xlmUfl/DgL6B0mwZY5fay1Ksqn9TaP8ikZBaGUr7WwrZ1xvGNAPWiLjUAdC7GyoNrcYlC4U+UtAcLI8mQjPQ98ClNqD3SdD1IdnLg20PXGrDy8vBOnKO9ZSxdGhYaEJqErqZCK1ShMalNpSWkAG58jeraa8PdU2bJKHpwwXQJjalTwxVCV6eVElCo1LT0FU+yTVFtugu8ZoLLHVF7pPW0En+NAyNC41Wt8hu0i0FTXTW8EShEanJvt12idhD+x+FkmnQlNBYxVZDc9BrWyFbeFKhaaHhvcHGeQYl5PTm6F7KioBmIUJvvLvkIKm31Obu09yB9shQ0PsQoV+HfbP33qZwW+kXanN3TUF/SYK2hV5Hddb0fTHw4KGGvjwg6Lcp0I7QZjvQCym13qoANUgZ54k214N2hDYar3hNd4vdDccKcDjo0dTnk4zvgHSFNlrcuNN/X2DQQAp5jh9sbuH/JLRtukJbvaak1BoaWNWevwHbiN33UEY1yC5H3q4BTUo9NMhCPd3nXkFsQmQ7Yof+R0ULbe/dort64d27urQ5pW1zRTV9n4W2oKkmyH7LIbz1lzrTbHTaqAs9fhXGQmO75Dyd6gdik7Vx2gHPsNVWOLRHaAea41L3Wz+hg2kuDbQXCGBhEw1tC/1UZiNoZ1cJ81t5K3hLEeWpKmoTpTuWMt8efAcal7rP4KHze5j+BS5QAMlI6MK3Ac6BdnaVOFJXK9wHuqylkPbp8VnFLrQz1dpCDwOaA21/lzNW93kluA1KEqZZm+RRe2w5LfRIaTuqpTcZhs5K6XrCsWT+hYS2X5eFV+gR9DMM3bdPg3svdtrKKYHcZBUFzXfEzk/mqeLa4dF31wuGzIdoq2GbelDQR7B8v/HssWXjernzIvabL6DWW8M0A6Jee6qB0GYOpxV0hzxE6GHfOGRt6uZ76Nhew1MN26Fv5HCGgg40JvSQL4FbsMnu6gBo5xnpxMLQwZnGMaGH1APc7D6Eh4QDiNih7958aMWzdqFaW/tsoWsg2wEC1jgEFNlFR23Bdv9q3x9mBpy1S84WehSXXYMbBL3V0MgmXArafWG6xbRtXJvQttDjBANeEhlrMeQgNs9vpBhBjyLrIrWVV5pKE0IPg+Z7PL+HZx/t9MHQK+Zb7DirDnNhiws9DD9+6OFOcGe/dvpg6NEPfJbS7lQyLQRb6PFiq3+RP2KW2QkLPLPmEAA9Cq1WS7dTyTBriIjmC+xFZDv9hD8A7+GpBYoMj1FS24rptIQZ43Q12uoMYHmhCwE/4bHTh0B71uO/SyASc2vPn2+5XR+QPrQ2A9SfyzPS6YOhx3fnjfLPCI7V61u5NgLpgWc7eH7wOH0IdMDJhJnXVPf6GkoiFcp2pdV/LnhQt2GaIdAr+neS+k8m9FoElYRrDNw4FBcMad9vw7reaZv+XkgdteMJrzbPTAbLaocQaLFPU9rbdNpmngI0zE4Hmwpq04mxfx+D/qVSlPYLbbxqo6A+W0sCnP/NNIA+1zTprF6gu5cZpzy633Gel/5t72yaE4dhMEwnbs9NZundPnBmxqFnzyR752PhTOmU//8TNgFCnQ/JkpPudDvqhWpokwdhx5Zt6Q2kft8im1AQQDnZ68iJAc6vD5cP+FAHKoReI5swtM4joHfgVr1XqNG1g0fvvuAe9TWyCUMT6t6SMzBeW2Ve8/6Ut1nJgZp0eSJC82uqQ46uRwbvyv5f3fJ8NJ5EfdsWJ0AHq9c7qqPrkcG7sifkq25hnA4cUvtNhWbrBICJAXUs35Z5bt7J/fOB8FNWPVChw7MPcqpL58rmaC94qmjpn8EHXLyVvgC0YWpfwBkYr90rm2ORl6rInzL/voi4wYkMveNBg46+zNA6qjPzqjnPDpm/eouNwZoMzdNzgT9jsu1DG/1yTk2LAxPsoEOzlHOQFn1Jn+zLRZrOIAff7rPeTRg6pMngiCnjJI0irHV4K31BaJYa1Bx09PV4ShA6JHJEhX53dGj4A5J0t9DjzyuGGlTKUDhDJrKogO6nCXvIW+kjSMIGBH8c7TgvKlV8Nxdl4KuiQodCLpKjWzoiMDRyBZexoH85mqcxR9+6fggaE8AzHOhQoyadUMc1wxsTebzeK10RoQMaxhRH33c9cWhM1HHLah5IKNHyNKqeuaFoM2MScC5jQuPFLyhJF90z8cCNMKFSzYTG2wfB0ap7bBG4kcI6Mhcaax+O4OjeubRhc4GOTVxoQhUaNLnFZSRofAznQhMUSDFHq1eaSDrcD5OHCGgsEgg7utiSoJFpaXlK+dCIwKwLp8atDA16h85c2NBYwYCgo+vBjNQ8EDl6BBoOKOA+4oZ27jtnn5AJtG/CVeNOhq03jnrBgQkA/tIzBVovY0I1BDp7Rlbn8Rl3eUpHQrfWVDmehrsaqrjdjIYUaHBsuR6OiYAGXe0ojh4FrVAFbQw61TvoOAzq6ORJj4W+bbnHQGfA8oALPzpGQi9NNHT17B/2KOro4kmToYGO2MQscdCAS7FlVbXKUjp0jnTDSOjUPIdr0nR+Gt3UEYOLWplR0ITqP8ONgwi9Q7phPPQiYVEnq4wF/T7oaD0S2swtg1ktT4YFPXTg5rMIRTS0OdKpVb41POiBWVndk0dDe+LEQeaNYUIP7CAWGx2CJsx69ZpGrezBUJZJ8QUWtQr+LwU602vrKH4+mJQN3WsfxXYS6Mo6hqmT5cGkfOhuAK1WZhroypwneaBpLN9MGgPdmUpeEzmmgTYLtIkUy31GpUTXKm4pMxNBG/2RWKAmemEf3xiUHdPf0mv2+aeCrrFnNu+5u7T5BTka2vzJW8/5aaGNeflYJ9aWZamcU656La11+zOXsvsd7vKmY2zM9ND1Zut5P1OqLIsafTbbn+9vRkNX85tLfymqZ+YXQDe/VkPT+S19uRgxlL2Gty6stY8bk30N9NXUF7dn0ZQ98/xxOFfPny+Fntz0v8f/BpplCvQ/g6bNer+XKdACLdACLdACLdACLdA/ElqCAIEWaIEWaIEWaIEWaIGWVVOJXARaoAVaoAVaoAVaoAVaVk0FWqAFWqAFWqAFWqAF+vuZfwFenpcLDQWxRQAAAABJRU5ErkJggg==;" vertex="1" parent="1">
          <mxGeometry x="800" y="407" width="70" height="70" as="geometry" />
        </mxCell>
        <mxCell id="XwNVx1Ax-Z1lkmflQ19T-17" value="&lt;b&gt;&lt;font style=&quot;font-size: 18px;&quot;&gt;Asset&lt;/font&gt;&lt;/b&gt;" style="text;html=1;align=center;verticalAlign=middle;resizable=0;points=[];autosize=1;strokeColor=none;fillColor=none;" vertex="1" parent="1">
          <mxGeometry x="795" y="377" width="70" height="40" as="geometry" />
        </mxCell>
        <mxCell id="XwNVx1Ax-Z1lkmflQ19T-18" value="" style="shape=image;verticalLabelPosition=bottom;labelBackgroundColor=default;verticalAlign=top;aspect=fixed;imageAspect=0;image=data:image/png,iVBORw0KGgoAAAANSUhEUgAAA4QAAAJTBAMAAACiLMUrAAAAD1BMVEU9fKbm5ub///8ia5uStMpoYv0IAAAgAElEQVR42uyde3byLhPH+UkX8AouIDFZANEsoDXd/5returTyny5TG4E1H96PIeJ0A8MhLmJ4/VT76+f1b7Wn5+flwS/u8TX4/797UOl6oZI9MOtPH993opAWMuz+RrO5bkQtlJ8f2RfAMLj8DMWcVbPhLC+EvxiuMsfYWtug+mfCeH/7qMWps4e4X06fs3H50H4bxF+fXa5I2z+TUchnwdh9TtqcdsN80U4/I7lZxk+BUL1ZxEK+ZE5wj/TUYhnQdj+HfXtQJMtwsfBXJ4DoRr+zltxyhth83cssnuSVfigekSfN0L5MJjzcyDU4vFTZ43wcSzy9AwIlbRGnfcqNNaEfAaErSkZobyUj/A4iKJXYbc+wtvfu6lk+a/2mOVKv7vQV3s459W7sTrCqnCEYlc6QvswI4TJGiFRKjd7RcEIW0E+eSO0t3YhVeEIG4FnbbaKVBOEp7IRUj0qTnkjpHPSlI2wJVuHvOSN8GAcmrRUhNqxFeaLkB5J19Yr6yIEerTLHCE9z6x9QFsXIdCju9xXYeXQpIUi1K69P2OEVLNcz6RlIgR6dJc9QrAMTbkIW9fpLWuECp+yy0RI9WhXAkINz6RFIgS7xqUEhFS5iFURrmhda8GmkaHXYdAP4XtqFmrybcAbRQkI9xXdIApFSCfrsQyE9IbG1EUirA24mSkCIbA4lbkKqb3+UsoqJLu83BWJcEBvwGUgVNQKWpeI0KC3pzIQAsNviauwRXq0FISt0wuqJIQa3iQWglC5jGglIaTvv6eCEDomaFkIsR4tBqFjeEUhbPA0LQWhcrhfFISQvv2eikJINWlfHEKHoikGYYsDDQpCSEZojmUhVCLVHF3LXtiAu/xsDYTwq2OE5Zh8B2BRKwsh0TPXjDrlIDTUGlMYwqOAsa/FICRTtNsXh1BTa0VJCBuHHi0JYQWnaTEIJTlxl4eQ2u7rghASg31fIEIFE0GUgpDomF2Jq7BCm2EpCBvqxF0gwj3aDEtBONCrmQIREnva95thKQgNveKOkVXbgHT/FmyswWZYCEKSs+sSJVt/fr5fkiP8LkKh4hrTcRaDsAGX+GFZNZzP5vyWGOG1CMUVYrAx0TbFIByAKS0oexx+/iHSJEWorr0493GN6WZYCEIzInbr9r+L3ziXOaHcyzH8BJQHZYm6WQXhCuY0tEVwwqASWgTb8+97UIQs2PTLMPmCuRmW/T3dyf/SIWwelGJYluqbMhCSHSJC9u+V3DkdQsmMdNHEm7QIhMQlYceb/t/XcYkQPijGLkK2ShADu8YqtDeID970/+fPtz7C5tFKHZa17/OlKgIhueOuw7KPMn0ihNZLQowySJCqewWEGm2FrP9dqjqZludkzEyy9/1TCQjpqMKy1uFcplKkBibJ8ck20Acqd4TY58Irq1PFJ/gRnsKyLdw1clekBrwV8ly/UyG0c43GOGjDKhyZI6ywavHJthtB6OiHV3ZAbmyZI2yw+6FPloSYJEJon6VlF5Z1DDdrhI5p6ZFV6WL1/AhvmtQra8vczzM5I3RsDh5Z+p9T21CkUWGteOvPGWHtOKK5Zd2lHxK/F94j6P2yAt1FZR3ZZC+pLixL83vWieyFJHT3HHa0GXDqi4xNvhrHL3OcTtMFYNDU6WHX0AYPOF+ErknpkQUZWlMh1CCrU0iWnGeyR8jP5AyyP6dCCLLfh2XNyoU4Flek+ILDI4uyladCSM8z35qUh1DmjrDFasUjCxJ4p3N/0ihZbEB2WLmi0dIIK3Y+dZAlOR3CFiWLDcg2cPfPFyE5kIZka1TTMZ0TIp1QH1yEp7wRUq0SkkUJvBO6AtOdeReSxXtHvgjJ9VpIdhCjvPcX+wpeK0KyZt1ixUsrUnK9xhz/9TonIUKaLDY4hJWrcC2MkCiVmqmFrv+AhAjBVTdTkVyPpNkipNYz5llA9Me0COmBpuNu56esEWruWUCmLSQXMQv/JYt1ylbIvJEtwoF5Iq9N2nKOMdt58I4QHkkXRLis7c0wy8NUAnrapHJChOaKsDuMGREGtFWTb02vfP2yOAlWWoR0ew7IKpR/JleEQKWwvBbubhpJEdYwq5NPdhgRT7lVhOBs5pV1JIRMnDR24PpSaGDvLATh912Z3/0LxrGlRsjuVQW8DnJFODDrbGnBdndb4WttmK6wZP/IGCG47vTKSkfi2bQIXd1yywKvvVwRAh8Er6xZ3RU66mvDPGQp4IGXKcIavOP6ZGFqjA0gdPTLLTtQ5JkitId+Yr6ByXobCGvDC5FUes3qzIsirOiBlHUP0m8EoaNjbtmKHmEzRdiAACWfrFk/yjnuK1YPbllb/XTZIhyA+dojmyJdRNzXAzdpB32ryBShBE6xHlnbT8Uct4KQmzpH0Su5TBEio4tHNkXqpMivGr3teGQHongXRLiksc2w6jYQc+9umV6N+VoxTYDNirnIl0Rob+qh6ik0mHQzCKFXmke2WtGbeUmEFToDMByN6g0hlMClySNLZm+mCBt0EnfLNuzohRW/amZWXHKpkSdCjSylTlkF8ipsB2HFzE29YmTPgghtJr1fVgHD6nYQtuDG3ic7rFfgaEmE8GLRLQuchtaBpGI2XcMLE7B3hUwRGhbC1jBDopXaf35M7/Ox/vw8HoONB16pjWa9SnFL7oUGWWicshWz4JE6nL8+/dROtvLrKeYj2BhEDfqeTHI5ZonQuli8WY6csppXdkxdk9dLM+2tuf55W5DnXahxZXg1i8xq6QIWRNiyEKqBV/zvXn5A9rOkJTmrQGNgvuYgvGSJsIIOJ06EhlWC8/c2btJ/53dtdaHG1A/I+2QJnd4yQ2jtHm+8C9Xe/0N/9NrdMDymk79L/3wJNNa8a0+9WuqcBRHiQcReqJ6i7wHuy3BEJ/9qR+7NdeDas1ktgdWCCAcWwgZ5GEW9RMpudCf/nlF+dkPGteeJhXCKqkgW2WTZjkI5RTUr82cDctnwO/l4hAr5XBPTmfeHbOI5mnwVL738gNJexfkDyNGdfOiiCfAmLlDeHzoUgHDPK1SAImOdjR+n+G128DtpPSbgZ2ZPsnrO4W8SIbPWhEH5diK17m5kJyuyX/lk7d16ViWUA8LAD9nAL/PxjkYYqI1GLNh+hKulF18OYcWqllPBSRvXeDRCcu/plzWCUcLJvm3a5YgQJ3R2yDaMoh4KZxqejtB/QlEG5zd2/JDOH2EzZcA946QwHiENZ/TKDlMm5SlDhHqK2uk4u+x8CHecEYW2huwRWlDu23nc5u8fMEmLNpciDSysRkw4oHUZrkIWwr2JP785MkRNfi8MUqlYr0mtEbNcISVchaxtpuW8RTnqAfE7eeCVpWF10k5k9XQIve9nuJLSmDtSg9dz5Nv6hXVZkSFC22bPeQMR0XfT0665BetRSrDeE8w88yzhXmg4N4pN/GGPFh4Yf9jTgrWgB9bvirUQLmUvJFsBx8bdMex2U0y+rmfFGbH9dkrb2JafybdlIRzi3RQqWAprZJ+N4PgrYzNunDP7LetXxgg7jrOQ16OJKL9ugkHckeXQ5dBlUDo91w8NLDfaDSKsWG4KDK9LOWdFJ0eWw1k8YzXyYcsJYTMFIae6YT9reTvplTWc7a3hhZRkjrCOR0gyMe3mdHa95bB1bW+Gs71V6PCTE0LNCXMl5mF344bpkssL/PAnBFCc46t9BZEfwoHjdVnF68Zh3opOCiZ2imy843jG9mUjbOJjYoGhaVKfK5TYKfKE4t/erMNPX2eOUM20cdIMUTNnVvnZ4CJPKB3nyW/ZIWTtWDr6hNIaWvfD36vaf/QH2W6il2zPQWjKRjjY6facjRtmUa768Pm5/75OdPYZ5UKP3d68VJThZIvYIEJiapln49TAWuDWuu/n6+fz6O4zyFo4z/ameDlbto7QzLVkB0YWpsP53onfSOxwmgZvjD9nYRWGsOc0lvGJtIS7G8fh/PcufOfqs70Z+jJtKMOgojj3PlMQLmUvNBxfdxOd+hEFkuLGg/Xv/q929JnGfroHyAq/GjiNN2jyXQYhzMwHG2tqCqxx44pRTEMC75lYhCozhAfDSIt7iOZdoSsu1JiWURZnR+PaxFclQm55zsY6b4StYSSnbqN568gc2fVZ0M/PARI0ZiDUExBeSkZYxSYjJ2ndXAgHQPBqhQg37qOpXB2gnI2bvBFGU0HhB9E5sjtHN6iP7/XVRsEnUy/tSCpXB6gnQXiaCaGJK/khBf50MQjlQgh3JSPU0YU5YE4l0rgyDoRn+GTqh+wcYDUeocgNYcMpl6IJmEiEHzHnxmAQaE0c7Z0DtGj7EbJ4l4Xww9kYp3WzG9fGiRB7JBNH+1iEnR+hyRqhpRsvjKoOHoQ4rZvdWLsJ4gArElPtHGDNQdiWhNBfOsx2mt3H1k56i4pHCbv628b4aIT9EyH8mAchTutmNW59CGHMVBON8DgBYZcZQks3fTAqHHlqbkLv2kCQe0TyEJLZYR6Edd4IdezC4iC0ryghQiV9CGE4Eon/iEUoNoFwIXuhJurL0zjaHYY4aET52AdjWexo39o5QMXKe2s4GVY3Z/IdOAjp1HY0xmHVj40rL0HsRT8WoSwZoV4EIQ7nfmys/QiR/y4xxi+C8O15VmE/DaEMIAT+u8RFwo2QHp5fivQIX7Zw4z3OzPfY2AQQAudPEpDrHiAHoXqeVQhOblEIe+g4GkKI3M7s66F5VqF62lXoRogTKgXC54UIOwPqF8KVEB4MzMznC89wHUm9CC/uAeqXIp1zFZ7C4RnwfoY+uRmL8KPgVfjOQNjOiXAIIUQVMFZB+JY1QsFZhadJinQGhGIXi1D4EVo/nBlCTghZG4uwEmGEck2EkoOw5FU4FuEuHGHj8IGyn1yNRXh5mlW4IkIzA8LTC+FSCJtZEPalIVzIXkhvRNyNbYTOJzfQXOiNsHH5Xjw+2e6Be4DAvdfdWDCMi9sz+XIQHkYivGwd4VAQwrdFViFCqF4Il0HYr7YKIxB2L4QjEJr1VqHYEEL52guXQXh6rcJNn0jVsCGET3si7ZxPrqAbqb9QZBRC+73whXDaKlwYIYrzsx+8CMK3zBC+r7AKT6gbYZPvJRHC1yqMRFgFEYIn25vsaxWSVSjnQQjOPaQbQd8ZEUZ4cQ8QJCKZJwAjb4SHkQg72I2gE+IL4fwI93MiVFEH0hfC8NdhPMJ+GsLh6RCW5goc8kKElQnsaMiXH+lKDvlvsBuh80wNHPKjvblfDvkTw2LsbNe4GyYipOIVFhP+qpdAGBXZ5HdDvF+sPiI0L4SzrsKJ8YX+GFEJn/yKL5x3FU6M8j0efJr0lqrm8cmjA7WfKcpXMdzdPLz/z965ZqmuKgGYLQ5gJ3EAIWQAaBzA7bDnP6bbtna3pgqo4qEhHv9lLQjgF6CgXnii9UVh77ECTW4JchdQJRTxRrMwE8IOtUJcFu6N54IUe3O/lHiKIDxuGSF549SoRT4o7CaIZ4MCeXzIa6MX4bgphHMRhEe8G23nUTRhbwZBpfIgPNSNUCcgdE/ZHruxDmcPuT9JIm+GOe3ySCjjGyEkr7ojeqoImc2HutGCoyN1YvkR9kGPqooQXgSPHKsuFWEjnXom7M2LSTtnmljvhJA+ZQ12qkAKo0Lp1OKFlx8GncqmEUJvTjrCHRXh7VRB2N5+7Z4w3iIWoZ+KRqy1SiAspC+EY/UUzp7k4PMBLKXSmdTivwj56GOZVCMNNdXIMIzTkmDr6nMHdkwqwh0H4VwZwkMZhB2m/HOo+B8YStM6+yzBadM5wDdO+HPOVFhjege88HCQv6+dbnMwNWeTfSOEDQfhYsruycnv5M7TjfaSB/brQH9JIuruM3gnHWHr/TcqT36Xkr/QuAsv1UJHbzeG8Z+YJrP/5+2zhiosZ+GwVfFmEe69CGF+VVfhpabAlc/u+3H4+bn7jKQHdhY2CQiHyhBCrYyvMNjhnAgFonNN7LOB1t5EhMb/ZvEfQqzwcsrMyX1eWrydPYWVCdr2bwihoK6NmDbeXVgjWvi0PmvEVNhVeDRB237nlBWbRtgAbY+z8NK2yR+IgfJokWs4V+Ee01fmWXXXj9BfF+hcnYWXy55M7rMRdH8znYDwXB1CkA2NgfDoKWygXWhSn8E3MdARnrxvVpUjbOjbG7znPrsLg3Q+x8Q+a8HwxbUchGPtCDvy9gYvSffKXbiDPhJJfZbhqDQuhFfdAxXhsRjCQvpCeKfvKzwud3534Z5m0UR9HA1msO8ovDyVzt6GMPVwTSpfuG34Ci+z6dLdoC5fd0qfO9R3zYXQYMb9roY0ZoRcE8Keg3B5cdXSrfe9vMOPErvucdY1SFlnYTTZYlUIDWeuCDw0V9hi8S4IVEyfgY3NWTFWXQ5CWR9CII9561o8KBDBsOonI2FUn4GJjXfH6tGGXQ1Z7LOsCaFiIewIziu3R+DF+z1n0zsZmitd2Nv0buO0YQfxdSMEN4TewlqggRDQwgafORlW+5CEYjnttpw314BQshB610br8BmM6GTHe5VF1wqi+Ko2jnCxy0yKflxJ+Xckb0IbdMfOIr6uEqGgnxOg/QpDUEpYoxRvW12eXmcOQlEhQstByPp3HH98hMm5wedzhu8MiuT1I5ybbGuUxb2v+Z1knk96Du9hNAzxdZ0IO/pRDzHHZfyV8dePmndLoFnn0T6X2Pw6hJp+1IMz68xYddEMy3EIW849wNHfkH43hJ1gbP6y0CwUHAGNOaJTOYSl9IUN7lTtqttj5l6uwpoQ3JDy2Am6tQA0GNj5G7Jo6ZpUvsCn2V93RJ0/HYWVKYIwYFqAd9HVkCNGTlUIcadqKhW/QtxyCrsfe7IjALZQ+BtqRf0IGxbCgTWxNGPKeh5ZHnRgzirW8NsKEba8MVjBMBZ6nLPRCB//5osugW6T9zlnc37B60TIW0lsvNOQyWPsGrAqXroY7Fn7iKgSIU8k04LjyvXwB52ymNl9nevJUzYovvIE8pXuhR0aMM1p6244buz3R8MESeGhUdVwvMkDZpXANLZKhJqFED0ouBvSJss2I+8i7DFPIH77dGCgvgWE50BdxEfM15D8DWWRcv9gHi/X3IWX+0LA0adBDb9rQ4hv6M66kuHbcK8IMG3Khi0fJiE9mUboELm0Gt5tAaEM1O0YHkZfl87X109zUif76T6uED2x1CXGrxfhYvAfVSJU6MHQWZfjqnm97P789+X0J9Gn4jAZIeW3gZ27MOKbyrhQlU2VCAfWnRmwpzgGGzrIaf+hUvuspBH/hlBhENRtx5B1w1c5a0XI0ycsRVITbGgY2iF3n50IEd8LX93lpC2JsJi+EESqD2j1WsR/t0CvIh+VIceAR62GC3ayIMLGYjaaboQWWkGsByEWF4Nh3nisFGHHcRrCFLArQogJW766huXYtVqEaMw7d10kmMV6EGJxMRgWqrUi7DFzT09dA2btehAa5BbeU3c0HCfn9SJcxrwLBKduoYXvahCOSJQvhmGVbCtF2BhOMHJ49DqtB6FGYu3TY/5f5Nc6EbaYrbSnLvif1GoQWuyM66lrKSlOakBoEZHUU/cAToarQYiFiGKk8zvXihCcKkJ1QQCRHN34zhSa8qoeCxHFCMtxrBahRkRST10Y2Sm1GwchJ7H/GFJH1GEhojx1R8NJ07FmhD1iwu6ru/ynzJAmRsovTZKczJx4PkFDRHnqakFOnrJyhCMikvrqIpGdErrx9zfLwfSRJBmBTGy7QN3ltzhXi7BBImn76h6MQ9cd0Y3W3uepmOaUEfXYwd5X1/LuxFeMEIuk7avbGoHbffG70f59fNfUpnwNAnXacddF9GYFERZVtllG/gDkOPXjSMvvxjLfj/Bkiwk+4iGi6EFT96qpVGuP2sN462pH+AJ+N2ACwz/RIwK3a8dAXSybRq0IERVN3j/L9YjkL5za2BF13A8rfwz41yHsDT2jFbpkSRXXjUnAnyfNWsDOCg+S4q7bQTubahEium5/XYt/8OzZbxCE13dFbKuOrdCdD8UiMU5rRbicVVOoLtgMj1HtYgQ/1wAVNaLOESKKnJVINjUjBCElAnXBFz/FrH49jnCKG5ErRJS7rkFiP1SLEOTnCdkVgj9/F9Eunk87UjIcXSGiyOndzlXPQiiSBupaVAjhtTsaB0ITcz7r0PXYV1fnWcBXghCKpIG6ILJTxEaihev3kb6dC7kL1MUMvytGqIBIGqqLrqS8dqUT4TH9XPS5n4cQokH3q0UIRdLQ+OH/rxKd4tLykoCVXQSHYLC9s16EkvkJw2wwFwGQ1a57HQ0FByI46xC284PBrNjrRQguKkJ14X92VHFen/hKyhwC8kVxt/N9UzdCIJIG6xrkOMdp17eO8j2MwMtksK5Gw+0VRFjY/GspDZy5pu9fZgucdrWPYCBcJXj8awTbTaBDTQ9q1dojNgtBcxiIwKRlD0lILYMsyieuoU1Qxb92hC1qvjcwPPm4U8e7jobiwC4fYV8+gnUNU8W/eoSWbdEEvnx5YrTr3wq/E1EQhwAvW40K1cU8EeteSDuBB2AhW/Axp453KwyGtV88dtg6GqirUYPFmhFqNkJleIHrA7lk8M2QNgSJfgH+uo5vtmKEB4c846lrBSt9RCCjEysfzOIR/5j85m4S3zkqRtg45BlPXZ2w+o0hhJwET3A9OIUtFvnjXTvCiK+SmYfHj18kZAdSeGohb92Rv+qsfhZG7A02fgOzQYSM7EAOqxnW3n/cAMIICU3Hz8LQOsrKDgQQntiHqBSfgtUgPBjUXclXF8Tp+aC2q8IIz/EICYtwm9WzZyUIW8O/cLKxCMcwQqGiEVKyn7Fvo2pAiIVs4SW6pkukOkxQRoszlC25z+siuRKEuDzDOVPTz4UdAeEcey6kXM51uR2VCQgL6wsRFShFi62XFsS0dltB+J3o2mPLjq8tuSru9at8Px9xocBf93EJo8cmJ2yF17dF2HB8J0vh2ArJeRMIgTxD8W2wcPcktEuRZoKB2+8e+0dhhm83LIdNIFwGtbxeUzLMeelRkXvKQjrRh3C/GJBMp2CUqG0g7LDNkGFUfyYbvHQUhF8LInEIlhwSf5F6gWruVgnCPsbT53cayh21odaSEM70IdwtBjvCeJXhmrtVghBGdWLZ4J7JRogkgZQQe//u0bL8MZAoUdtA2EZ5GKnpN84BtSGTHeF32AUzN/zYAhc1xUZmYRflYdRP5hK6aY6f7h6RlDyE8bcX4cJIlKiNIOyZGQJuj+p/0zURBbWhAw2hYA1B2WkSM8moXiGhjzaCEAbAIp8pB5bcRCMouUMYBlphLZhxdupB2CImKM84vXhE0iLjtYKbLaWeWYhEdXrGHYLrV2p9M8hV3lYQ6mQnMdKqSyQYjGAU+QiV/BtCiER1esJlrO+iu8R4dcIdQgrC8vpCzKTFlGhIURGWSWICfGhCscjrUfmiNmltgYZGKsIySUwOhm03XBNCneLpQg6CTt0LZZHxajRkzmYQKpPgJkF91GSERfLQWDTSxWYQDmkeRlF2Vl5b0gLjNfGmclUg7JI8jGiPZIKfAnH+8fZ4LNXtIOwdK2lBg1WvOXD+8Vp0K9wQQoeHSc6GGjpCofKPt/wAX4wQhtbN/pGOdIRSlV9mhNoaQi34XkK8R02fhPIj+wBtki9qFQjHCF893mPHQDjnHqDCA6luCiESFDJvQ4wzxeepIvcAe/OEU9OrEVpR9v6JcaYo4OpgxRPuLl6NEP9OMzbEEEh/MgnlGqDDK39jCEd0Jc3X0MhBKDIjRALPPg/hU/SFX48yyZIs+NhzEMq8A4T7sFFP+2OfiFCLotZBmjMJv/2GS9l3ldFpvxwhXEmzGkB0HITfIn8hQ9lCliUvR4hEo8jZkGUhPGU1V5fiOfZdL0cYESSZ8ciSZoJJe1iPUJI6N9tECMW248sQhlJnscyuLLZObxIhFug6W0O8M8UtF1SmARpMob1NhHAlPWVrqGcRDOcgpD8OaADvjSLEg+zmaUgzEc75EEo06Ok2ESIr6ZyrId6Z4udUkWGAI7qObhVhV06skEyEp2wDtPigNoqwN8UWNMNEeM41QMSGfLfhWYj80cc8b1ZchDe7iBIXe6XzbL0WYecKtJz65pGLUOZCaB0TfKsIka3/I8ubNXcSymJXCjfDruchfJpay2Xrucvy5o6NcM4zImR7f8o/+QqVr8tG6ZTjza3lIsz06SADOm4cIQxKcc6CkE0wz6eDKSnmjSNsDW4DkYqQLZDm+XSQb0cOG0eIaEdzvHnkIxR5EBrx9KwGr0YIdfdthjf3fIKyDMInhMR/NULokZ7jzToCYZtlRKawbdwaEfamAMIuAuFcAqHctdtHOJRAyD9T3ETS7Aibd0DY5UcYcaa4yR25JdKzegeES4Emx5sjBNLrqSJ5RPYJgRhWh3Ch2stxPos5U1y/ncy3M0a9B8IHgYaS/yf42McQlHnuSJc33G+B8EGgyZL2XUchnHOM6GEBkM27IOzgOSrpzW2MQHq96E4f0T3Co3oFwufqC6+P919uFq19HMJTbq09JwNGtSrf6+PdrJmy2M5ESTO0QP0c25nz8DYIGyV/TPJzWLCpOISZDHZ/toWpfSOEP7ruPKbAcWeKL/OZHHakt1QW05/hnRC29jJuOc1Z3hx1psjm+TCMX2uK/DO8FcJGHeQ07ds8b9aRCOdMI1KfY7nNwf+3d3dJbttQEEZhQQvIgFoAKXIB4M8CLFL7X1MESTNlJzVJhbjdEJTm2+fyC31KGF4DQ/2PCNN36Zg9v+17IHV2v0KWVuTuf0holzsF01TxBrf/FoRxJ+EiwhfJbjdhJ8LXyGEvoRfhi2S/92eh10JaPeEqwpfIsO0mPIjwNQjd7mt8C8IS+4XGGXcTLuc3uP03IBz2EzoRvkS2+wW9CF8i+wzCIMJXyCaDcBXhK+S2n5D4Bm0R/kNmPM18vdNShNUS8r6KQITfZ85M8fkCIREWzTZH0GshfelyyVkAAAZQSURBVIHsswgvIiyfTQ4h78uxRPh9+izCSYTlM+tphvctgyL8Nrs8QsBXCtMJa98wy5spPt/VpC3fgpk1U4jwFbLJJFxFWDjDlkfoDiIsTZgp+HynpQgLEsZMwlGEhfOUS7iIsHC2uQvpLMLC2ecSPt57I8Jy2WQTriIsmtkzxXOqEGE5wmzBx1QhwnIZswkXERbNIZ/QibBotvmCvnrCuvcLewPCi7Z8S2aTT+hWEZbMzeBTOImwZBo8zdyPz4iwVHYWhOn4jAhLpcVMcT+UL8JS2VoIei2kBbM3IbyIsFxuFoTuIMJyaSKYDuWLsFSaPM2kqUKEhbKzIbxNFSIslDYzRXqnpQgLZW/zs9BrIa2ecK2bsOb9QpuZIh2f0ZZvmTSaKdLxGREWymhEOIqwUA5WhIsIC2VrtZB6ERbK3owwiLBMNmaEqwjLpNVMcZsqRFgmoxnhJMLaCRcRFsnBjtCJsEi2doJehEWyNyT8EGGJbAwJVxGWSG9H+PWm/CoJq90vDNGSUFu+JdKScBFhgTxZEjoRFsjWUtCLsEA2poRBhPQMmynhQYR8Qmd6TSLkE5o+zTzfaSlCZg62hIsI6dnaLqRehPTsRVg7YWNMuIqQnZstoTuIkJzGM8XnVCFCYkZjwrFewkr3Cwdrwthpy5ebrfVC6kVIzt6cUAcvyNmYE64i5Kb1TOEe3+orQl5Gc8JRhNTs7AkXEVJzsCe8H8oXIS1be0EvQmr2AEItpNTcAISrCJnpANckQmYCnmbuU4UIWdkhCNOv+oqQlYiZ4j5VVElY5X5hjxD02vIlZgMhDCKkZdgQhOn4jAhZhBDBdHxGhKyEPM2k4zMiJCXmgTQdyhchKVvMQupFSMtehLUTNiDCVYSsxMwUaaoQISmjQ00VIqyccBQhKQcU4SJCUoJmivRIKkJO9jDCUCVhhTtkG4xw1ZYvJYODXQcRcggjjHAUISdxhIsIKTngCJ0IKdniBL0IKdkACYMICRk2IOEqQgahA16TCBmEUYSVE56QhIsICdkiF1InQkL2SEEvQkI2UMIgQngiZ4qvN+XXRVjdDhn0R+Hz+7e05QvNCCUcRQjPAUv4+FZfESITO1M832kpQmT2YEItpPBswIQXEaJzwxI+3mkpQmRGR5gqRAjMDk24iBCcA5rw2IkQm+CZwrlZhODs0YReCyk4NzjhKkJsOvh1ECE2I5xwrI6wsv1CPOGiLV9oDnhCJ0Jo9nhBL0JoNgTCIEJgho1AuIoQSegI1yRCZEYRVk7IeCBNU4UIYdkyFlInQmD2DEEvQmA2FMIgQlxuFMJVhLA8RwrhJEJcUgjdKEJYDhzCpTLCmvYLOTOFc522fFHZcAS9du1RGTYS4UWEKEJPWkgPIkQRRhLhJEJUsggXEYLyRCM8ixCTrJni652WIrTOhkaohRSTrJnilzfli9CY0NGugwgxhJFGOIkQkgOP8ChCSLa8hTSKEJI9j9BXRVjPfmFDJNSWLyQ3IuEqQkQ64jWJEJGRSDiKEJADk/DxTksR2mbLXEidCAHZMwW9FlJANlTCiwjtc6MupAcR2md0/KlChJbZcQlHEZrnwCV8TBUitEzuTPGcKkRomT1X0GshNc+NTHiph7CS/cJAXkcfx2e05WtJGMmEkwiNc2ATjiKsnXARoXH27J+FXoTG2dAJgwhNM2x0wlWEtoTOlZgqRGiYkU44idA0T3zCRYSm2fIXUidC0+z5gl6EprkVIAwitMxGhLUTDnqc+Z6wkv1C/mh/0Javbbbsj2HsRFj5rv1BBy90gk2EfzuQzzScVx1/AqQnLqM/OhECsptpgs9fLxShdQ4zS/D8IUJMcgx9bW/Ir4nwfJopgiLEZRg8+rl0Pp5FCM1ug34Q/Xw5ixCc5z+Ahj6GswjhCVxM52N1/xpVEn6E7ueMQJzjpauSsJITbL/lebBHvAHWcvuVHkL8S1ojzo/HGBEyMyHOZp/AH7Xd/jsQ3hA/fnqDj+I8x+vXCi1CeqaPYsyaA5NfV+vtvwNh+k+3vYo+ff4+npOKCItmd7relsP/5Hjjm4/XUOf9viFhmpSejHP8N0if9OLxEmq+3zckTBHSsHu93j9giTL+phnj/Phzd70mvurv9w0Jfxn8P26S6Tp++h2Px9SPv9F13Xvd75+zaia573GE6gAAAABJRU5ErkJggg==;" vertex="1" parent="1">
          <mxGeometry x="460" y="477" width="100.76" height="66.61" as="geometry" />
        </mxCell>
        <mxCell id="XwNVx1Ax-Z1lkmflQ19T-19" value="" style="image;html=1;image=img/lib/clip_art/networking/Print_Server_Wireless_128x128.png" vertex="1" parent="1">
          <mxGeometry x="470" y="137" width="80" height="80" as="geometry" />
        </mxCell>
        <mxCell id="XwNVx1Ax-Z1lkmflQ19T-22" value="&lt;b&gt;Gateway&lt;/b&gt;" style="text;html=1;align=center;verticalAlign=middle;resizable=0;points=[];autosize=1;strokeColor=none;fillColor=none;" vertex="1" parent="1">
          <mxGeometry x="515" y="207" width="70" height="30" as="geometry" />
        </mxCell>
        <mxCell id="XwNVx1Ax-Z1lkmflQ19T-23" value="&lt;b&gt;&lt;font color=&quot;#0000cc&quot;&gt;Asset Scanner&lt;/font&gt;&lt;/b&gt;" style="text;html=1;align=center;verticalAlign=middle;resizable=0;points=[];autosize=1;strokeColor=none;fillColor=none;" vertex="1" parent="1">
          <mxGeometry x="460" y="517" width="110" height="30" as="geometry" />
        </mxCell>
        <mxCell id="XwNVx1Ax-Z1lkmflQ19T-25" value="&lt;font color=&quot;#0000cc&quot; style=&quot;font-size: 36px;&quot;&gt;&lt;b&gt;Asset Scanning in Hanger&lt;/b&gt;&lt;/font&gt;" style="text;html=1;align=center;verticalAlign=middle;resizable=0;points=[];autosize=1;strokeColor=none;fillColor=none;" vertex="1" parent="1">
          <mxGeometry x="291.76" y="50" width="470" height="60" as="geometry" />
        </mxCell>
      </root>
    </mxGraphModel>
  </diagram>
</mxfile>
